<svg xmlns="http://www.w3.org/2000/svg" width="1679" height="340" fill="none"><path fill="#11AF4B" fill-rule="evenodd" d="M107.25 41.68a4.17 4.17 0 0 0 0 4.26l134.58 225.12c.75 1.25 2.1 2.02 3.56 2.02h45.13c3.22 0 5.22-3.51 3.56-6.28L135.24 1.06c-.84-1.41-2.89-1.41-3.73 0l-24.27 40.62h.01Z" clip-rule="evenodd"/><path fill="#FF7300" fill-rule="evenodd" d="M105.7 89.75h22.73c1.6 0 2.59 1.73 1.8 3.11l-11.37 19.69-11.37 19.69c-.8 1.38-2.79 1.38-3.59 0l-11.37-19.69-11.37-19.69c-.8-1.38.2-3.11 1.8-3.11H105.7ZM78.56 135.41h22.73c1.6 0 2.59 1.73 1.8 3.11l-11.37 19.69-11.37 19.69c-.8 1.38-2.79 1.38-3.59 0l-11.37-19.69-11.37-19.69c-.8-1.38.2-3.11 1.8-3.11H78.56ZM51.23 181.78h22.73c1.6 0 2.59 1.73 1.8 3.11l-11.37 19.69-11.37 19.69c-.8 1.38-2.79 1.38-3.59 0l-11.37-19.69-11.37-19.69c-.8-1.38.2-3.11 1.8-3.11H51.23ZM24.81 229.39h22.73c1.6 0 2.59 1.73 1.8 3.11l-11.37 19.69-11.37 19.69c-.8 1.38-2.79 1.38-3.59 0l-11.37-19.69L.28 232.5c-.8-1.38.2-3.11 1.8-3.11h22.73ZM78.74 229.39h22.73c1.6 0 2.59 1.73 1.8 3.11L91.9 252.19l-11.37 19.69c-.8 1.38-2.79 1.38-3.59 0l-11.37-19.69L54.2 232.5c-.8-1.38.2-3.11 1.8-3.11H78.74ZM133.38 229.39h22.73c1.6 0 2.59 1.73 1.8 3.11l-11.37 19.69-11.37 19.69c-.8 1.38-2.79 1.38-3.59 0l-11.37-19.69-11.37-19.69c-.8-1.38.2-3.11 1.8-3.11H133.38ZM188.02 229.39h22.73c1.6 0 2.59 1.73 1.8 3.11l-11.37 19.69-11.37 19.69c-.8 1.38-2.79 1.38-3.59 0l-11.37-19.69-11.37-19.69c-.8-1.38.2-3.11 1.8-3.11H188.02ZM106.42 181.78h22.73c1.6 0 2.59 1.73 1.8 3.11l-11.37 19.69-11.37 19.69c-.8 1.38-2.79 1.38-3.59 0l-11.37-19.69-11.37-19.69c-.8-1.38.2-3.11 1.8-3.11H106.42ZM159.62 181.78h22.73c1.6 0 2.59 1.73 1.8 3.11l-11.37 19.69-11.37 19.69c-.8 1.38-2.79 1.38-3.59 0l-11.37-19.69-11.37-19.69c-.8-1.38.2-3.11 1.8-3.11H159.62ZM134.1 135.41h22.73c1.6 0 2.59 1.73 1.8 3.11l-11.37 19.69-11.37 19.69c-.8 1.38-2.79 1.38-3.59 0l-11.37-19.69-11.37-19.69c-.8-1.38.2-3.11 1.8-3.11H134.1Z" clip-rule="evenodd"/><path fill="#2E51FF" d="M733.1 114.86c10.86 10.75 16.29 25.42 16.29 44.01v110.19c0 1.12-.39 2.07-1.18 2.86-.78.79-1.74 1.18-2.85 1.18h-30.91c-1.12 0-2.07-.39-2.85-1.18-.79-.78-1.18-1.73-1.18-2.86V166.94c0-10.3-2.91-18.64-8.74-25.03-5.83-6.38-13.55-9.57-23.18-9.57-9.63 0-17.42 3.14-23.35 9.41s-8.9 14.56-8.9 24.86v102.46c0 1.12-.39 2.07-1.18 2.86-.78.79-1.74 1.18-2.85 1.18h-30.91c-1.12 0-2.07-.39-2.85-1.18-.79-.78-1.17-1.73-1.17-2.86V105.46c0-1.12.39-2.07 1.17-2.86.78-.78 1.73-1.18 2.85-1.18h30.91c1.12 0 2.07.39 2.85 1.18.78.79 1.18 1.74 1.18 2.86v10.75c0 .67.22 1.12.67 1.34.45.23.78 0 1.01-.67 9.18-12.09 23.06-18.14 41.66-18.14 18.6 0 32.64 5.38 43.5 16.13l.01-.01ZM1093.92 186.75l-.34 10.41c0 2.69-1.34 4.03-4.03 4.03H984.4c-1.12 0-1.68.56-1.68 1.68.67 7.39 1.68 12.43 3.02 15.12 5.37 16.13 18.48 24.3 39.3 24.52 15.23 0 27.32-6.27 36.28-18.81.89-1.34 2.01-2.02 3.36-2.02.89 0 1.68.34 2.35 1.01l20.83 17.13c2.02 1.57 2.35 3.36 1.01 5.37-6.95 9.86-16.18 17.47-27.71 22.84-11.54 5.37-24.36 8.06-38.46 8.06-17.47 0-32.31-3.92-44.51-11.76-12.21-7.84-21.11-18.81-26.71-32.92-5.15-12.09-7.72-28.89-7.72-50.39 0-12.99 1.34-23.51 4.03-31.58 4.48-15.67 12.93-28.05 25.36-37.12 12.43-9.07 27.38-13.61 44.85-13.61 44.12 0 68.98 23.07 74.58 69.2.89 5.6 1.34 11.87 1.34 18.81v.03Zm-96.58-48.21c-5.49 4.15-9.35 9.91-11.59 17.3-1.34 3.81-2.24 8.73-2.69 14.78-.45 1.12 0 1.68 1.34 1.68h68.19c1.12 0 1.68-.56 1.68-1.68-.45-5.6-1.12-9.85-2.02-12.76-2.01-8.06-5.99-14.33-11.93-18.81-5.93-4.48-13.38-6.72-22.34-6.72-8.29 0-15.17 2.07-20.66 6.21h.02Z"/><path fill="#FF7300" d="M1235.98 265.72c-12.2-6.55-21.64-15.76-28.3-27.63-6.67-11.86-10-25.59-10-41.18V111.5c0-15.59 3.33-29.32 10-41.18 6.66-11.86 16.1-21.07 28.3-27.62 12.2-6.55 26.32-9.83 42.37-9.83 16.05 0 30.22 3.28 42.54 9.83 12.31 6.56 21.8 15.76 28.47 27.62 6.66 11.86 10 25.59 10 41.18v85.41c0 15.59-3.34 29.32-10 41.18-6.67 11.86-16.16 21.07-28.47 27.63-12.32 6.56-26.5 9.83-42.54 9.83s-30.16-3.27-42.37-9.83Zm83.72-26.44c10.39-10.39 15.59-24.17 15.59-41.35v-86.77c0-17.17-5.2-31.01-15.59-41.52-10.4-10.51-24.18-15.76-41.35-15.76s-30.62 5.25-41.01 15.76c-10.4 10.51-15.59 24.35-15.59 41.52v86.77c0 17.17 5.2 30.96 15.59 41.35 10.39 10.4 24.06 15.59 41.01 15.59s30.95-5.2 41.35-15.59ZM1500.27 114.9c10.73 10.62 16.1 24.86 16.1 42.7v111.85c0 2.26-1.13 3.39-3.39 3.39h-17.29c-2.26 0-3.39-1.13-3.39-3.39v-107.1c0-12.42-3.79-22.59-11.35-30.5-7.57-7.91-17.34-11.86-29.32-11.86s-22.49 3.84-30.16 11.52c-7.68 7.68-11.53 17.74-11.53 30.16v107.78c0 2.26-1.13 3.39-3.39 3.39h-17.29c-2.26 0-3.39-1.13-3.39-3.39V104.73c0-2.25 1.13-3.39 3.39-3.39h17.29c2.26 0 3.39 1.13 3.39 3.39v14.58c0 .45.17.79.51 1.02.34.23.62.11.85-.34 9.94-14.01 25.19-21.01 45.76-21.01 18.07 0 32.48 5.31 43.21 15.93v-.01ZM1678.37 182v10.85c0 2.26-1.13 3.39-3.39 3.39H1565.5c-.91 0-1.35.45-1.35 1.35.45 12.43 1.13 20.45 2.03 24.07 2.48 10.17 7.79 18.19 15.93 24.06 8.13 5.88 18.52 8.81 31.18 8.81 9.49 0 17.85-2.14 25.08-6.44 7.23-4.29 12.88-10.39 16.95-18.3 1.36-2.03 2.93-2.49 4.75-1.36l13.22 7.8c1.81 1.14 2.26 2.71 1.36 4.75-5.65 10.85-14.12 19.38-25.42 25.59-11.3 6.22-24.29 9.32-38.98 9.32-16.05-.23-29.49-4.07-40.33-11.53-10.85-7.45-18.64-17.85-23.39-31.18-4.07-10.85-6.1-26.44-6.1-46.77 0-9.49.17-17.23.51-23.22.34-5.98 1.19-11.35 2.54-16.1 3.84-14.69 11.58-26.44 23.22-35.25 11.63-8.81 25.7-13.22 42.2-13.22 20.56 0 36.38 5.2 47.45 15.59 11.07 10.4 17.96 25.08 20.68 44.06.9 6.33 1.35 14.23 1.35 23.72l-.01.01Zm-97.1-53.72c-7.35 5.76-12.15 13.5-14.4 23.22-1.36 4.75-2.26 12.43-2.71 23.05 0 .91.45 1.36 1.35 1.36h87.78c.9 0 1.36-.45 1.36-1.36-.46-10.17-1.13-17.4-2.03-21.69-2.49-10.17-7.52-18.24-15.08-24.23-7.57-5.98-17.12-8.98-28.64-8.98s-20.28 2.88-27.62 8.64l-.01-.01Z"/><path fill="#2E51FF" d="M583.55 268.38 485.71 32.66h-.02c-2.51-5.92-8.38-10.08-15.22-10.08s-12.36 3.94-14.98 9.61l-97.8 236.19c-.52 1.57-.39 2.74.39 3.53.77.79 1.93 1.18 3.47 1.18h38.54c2.56 0 4.24-1.12 5.01-3.36l12.72-35.94c.51-.89 1.16-1.34 1.93-1.34h101.76c.77 0 1.41.45 1.93 1.34l12.72 35.94c.77 2.24 2.44 3.36 5.01 3.36h38.54c2.82 0 4.24-1.01 4.24-3.02 0-.67-.13-1.23-.39-1.68l-.01-.01Zm-74.01-69.94H431.3c-1.29 0-1.8-.67-1.54-2.02l39.31-101.7c.25-.89.64-1.34 1.16-1.34.52 0 .9.45 1.15 1.34l39.7 101.7c.51 1.34 0 2.02-1.54 2.02ZM1174.47 241.23h-7.2c-4.84 0-8.76-3.91-8.76-8.74V43.27a6.02 6.02 0 0 0-6.02-6.02h-26.96a6.02 6.02 0 0 0-6.02 6.02v201c0 15.82 12.82 28.64 28.64 28.64h26.31c2.18 0 3.96-1.77 3.96-3.96v-23.77c0-2.18-1.77-3.96-3.96-3.96l.01.01ZM919.64 102.6a3.904 3.904 0 0 0-2.85-1.18h-30.91c-1.12 0-2.07.39-2.85 1.18-.79.79-1.17 1.74-1.17 2.86v8.06c0 .67-.23 1.12-.67 1.34-.45.23-.9 0-1.34-.67-9.86-10.3-23.63-15.45-41.32-15.45-14.78 0-27.66 4.09-38.63 12.26-10.98 8.18-18.7 19.1-23.18 32.75-3.58 9.86-5.37 24.08-5.37 42.66 0 16.57 1.45 30.12 4.37 40.65 4.7 15.23 13.1 26.54 25.2 33.93 12.09 7.39 25.42 11.09 39.97 11.09 16.8 0 29.78-4.92 38.97-14.78.45-.45.89-.61 1.34-.5.44.11.67.5.67 1.18v2.69c0 15.67-3.98 26.82-11.93 33.43-7.95 6.6-20.33 9.91-37.12 9.91-.1 0-.21.02-.31.02h-28.92c-2.75 0-4.45 3.01-3.03 5.36l16.21 26.87a6.951 6.951 0 0 0 5.96 3.36h12.23v-.03c25.45-.17 46.08-6.15 61.85-17.96 16.01-11.98 24.02-31.97 24.02-59.96V105.46c0-1.12-.39-2.07-1.18-2.86h-.01Zm-38.29 102.46c-.34 3.92-.96 7.56-1.85 10.92-1.8 7.17-5.38 12.99-10.75 17.47-5.38 4.48-12.43 6.72-21.16 6.72s-15.4-2.29-21.33-6.89c-5.93-4.59-10.02-10.47-12.26-17.64-2.24-5.6-3.36-15.34-3.36-29.23s1.34-23.29 4.03-29.56c2.46-7.39 6.5-13.32 12.09-17.8s12.43-6.72 20.49-6.72c8.51 0 15.51 2.24 21 6.72 5.48 4.48 9.12 10.41 10.92 17.8 1.12 3.58 1.85 7.22 2.18 10.92.34 3.7.5 9.8.5 18.31 0 8.51-.17 15.06-.5 18.98Z"/><path fill="#FF7300" d="m1659.26 61.99-5.23-11.41c-.05-.11-.13-.16-.24-.16h-4.75c-.13 0-.2.07-.2.2v11.25c0 .13-.05.24-.14.34-.09.1-.21.14-.34.14h-3.65c-.13 0-.24-.05-.34-.14-.1-.09-.14-.2-.14-.34V35.08c0-.13.05-.24.14-.34.09-.1.21-.14.34-.14h10.9c1.61 0 3.04.34 4.28 1.01 1.24.67 2.21 1.63 2.89 2.85.69 1.23 1.03 2.63 1.03 4.22 0 1.82-.47 3.38-1.41 4.66-.94 1.28-2.24 2.17-3.9 2.67-.05 0-.09.03-.12.08s-.03.11 0 .16l5.59 11.53c.05.11.08.18.08.24 0 .21-.15.32-.44.32h-3.8c-.27 0-.45-.12-.55-.36v.01Zm-10.43-23.23v7.89c0 .13.06.2.2.2h5.94c1.27 0 2.29-.38 3.07-1.13.78-.75 1.17-1.75 1.17-2.99 0-1.24-.39-2.25-1.17-3.01-.78-.77-1.8-1.15-3.07-1.15h-5.94c-.13 0-.2.07-.2.2v-.01Z"/><path fill="#FF7300" d="M1652.89 27.3c11.79 0 21.38 9.59 21.38 21.38s-9.59 21.38-21.38 21.38-21.38-9.59-21.38-21.38 9.59-21.38 21.38-21.38Zm0-4.26c-14.16 0-25.64 11.48-25.64 25.64s11.48 25.64 25.64 25.64 25.64-11.48 25.64-25.64-11.48-25.64-25.64-25.64Z"/></svg>