<svg xmlns="http://www.w3.org/2000/svg" width="369" height="300" fill="none"><path fill="#93A3F6" d="M184.5 275.671c84.832 0 153.602-10.196 153.602-22.773s-68.77-22.774-153.602-22.774S30.898 240.32 30.898 252.898c0 12.577 68.77 22.773 153.602 22.773" opacity=".1"/><path stroke="#6079F1" stroke-linecap="round" stroke-linejoin="round" stroke-width=".7" d="m275.232 207.825-5.413 2.656-2.327-4.673 5.414-2.651 2.326 4.673zM7.168 108.036c1.724 0 3.122-1.378 3.122-3.079s-1.398-3.08-3.122-3.08c-1.725 0-3.123 1.379-3.123 3.08s1.398 3.079 3.123 3.079M61.092 170.256l6.95 1.2-3.837-6.471z"/><path fill="#A7B5F8" stroke="#6079F1" stroke-linecap="round" stroke-linejoin="round" stroke-width=".7" d="M47.555 48.985a9.15 9.15 0 0 1 7.042-1.89c9.84 1.481 95.965 13.186 116.149 15.878l2.168.29 2.172.292 2.722.363 2.194.29 2.187.292 2.147.286 1.074.143 2.136.286c19.209 2.569 127.946 17.94 137.385 19.36a12.14 12.14 0 0 1 7.345 3.979c1.854 2.094 2.984 4.836 3.076 7.845V251.21a13.16 13.16 0 0 1-4.571 9.959q-.517.452-1.073.842l-9.538 6.722-6.943-5.506c-10.483-1.491-115.558-16.362-130.349-18.324l-2.229-.296-2.579-.342-2.583-.342-2.578-.342-1.094-.148c-20.673-2.738-107.522-14.504-117.532-16.011a12.1 12.1 0 0 1-7.318-3.978c-1.844-2.094-2.974-4.832-3.067-7.835V64.23l-7.966-8.34 11.618-6.905z"/><path fill="#fff" stroke="#6079F1" stroke-linecap="round" stroke-linejoin="round" stroke-width=".7" d="M37.134 55.354a9.36 9.36 0 0 1 7.53-2.227C54.52 54.593 139.55 66.763 159.75 69.43l2.209.29 2.213.292 2.214.29 1.109.149 1.11.148 2.224.291c21.843 2.88 135.966 18.882 146.603 20.465 3.066.454 5.706 1.966 7.576 4.132 1.874 2.17 2.984 5.005 2.984 8.095v154.536c0 3.79-1.68 7.447-4.638 9.964-2.917 2.523-6.764 3.668-10.519 3.106-10.729-1.594-121.971-17.222-141.082-19.724l-2.609-.343-2.614-.342-2.614-.342-2.609-.342c-20.858-2.732-106.855-14.99-116.953-16.497a12.26 12.26 0 0 1-7.544-4.132c-1.87-2.17-2.974-5-2.974-8.084V62.463a9.35 9.35 0 0 1 3.297-7.11"/><path fill="#fff" stroke="#6079F1" stroke-linecap="round" stroke-linejoin="round" stroke-width=".7" d="M256.56 92.288a6.74 6.74 0 0 1 5.423-1.605c7.098 1.055 20.876 2.885 35.418 4.803l1.588.21 1.592.212 1.597.21.8.107.801.105 1.601.211c15.732 2.072 24.363 4.104 32.028 5.243 2.207.33 4.109 1.416 5.454 2.978a8.88 8.88 0 0 1 2.149 5.827V257.63a9.45 9.45 0 0 1-3.339 7.178c-2.101 1.817-4.87 2.639-7.576 2.239-7.727-1.148-14.289-1.935-28.048-3.742l-1.88-.247-1.88-.246-1.884-.246-1.88-.247c-15.024-1.966-29.491-4.834-36.767-5.916a8.84 8.84 0 0 1-5.431-2.977 8.88 8.88 0 0 1-2.141-5.824V97.412c0-1.953.863-3.835 2.375-5.12z"/><path fill="#CCD4FC" d="m289.706 108.588-27.818-3.618c-1.559-.205-2.827-1.579-2.827-3.07l.054-.371c0-1.491 1.268-2.537 2.827-2.337l27.819 3.619c1.559.205 2.826 1.578 2.826 3.069l-.054.371c0 1.491-1.267 2.538-2.827 2.337"/><path fill="#ADDAD1" d="m336.557 116.359-27.819-3.618c-1.559-.205-2.826-1.578-2.826-3.069l.054-1.325c0-1.491 1.267-2.537 2.827-2.336l27.818 3.618c1.56.205 2.827 1.578 2.827 3.069l-.054 1.325c0 1.491-1.268 2.537-2.827 2.336"/><path fill="#CCD4FC" fill-opacity=".5" d="m267.612 119.1-7.489-.975c-.42-.055-.761-.424-.761-.826v-2.19c0-.401.341-.683.761-.629l7.489.974c.42.055.762.425.762.826v2.191c0 .401-.342.683-.762.629M277.511 120.606l-7.489-.974c-.42-.056-.761-.425-.761-.827v-2.19c0-.401.341-.683.761-.629l7.489.974c.42.055.761.425.761.826v2.191c0 .401-.341.683-.761.629M291.045 121.433l-11.108-1.486c-.42-.055-.761-.425-.761-.826v-.371c0-.401.341-.683.761-.629l11.108 1.486c.42.055.761.425.761.826v.371c0 .402-.341.683-.761.629M278.685 114.025l-18.849-2.553c-.42-.055-.761-.424-.761-.826v-.371c0-.401.341-.683.761-.629l18.849 2.552c.42.055.761.425.761.827v.371c0 .401-.341.683-.761.629M337.277 123.505l-18.569-2.484c-.702-.092-1.272-.71-1.272-1.381v-.621c0-.671.57-1.142 1.272-1.051l18.569 2.484c.702.092 1.273.71 1.273 1.381v.62c0 .671-.571 1.142-1.273 1.052M337.277 128.63l-18.569-2.484c-.702-.093-1.272-.711-1.272-1.382v-.62c0-.671.57-1.142 1.272-1.052l18.569 2.484c.702.093 1.273.711 1.273 1.382v.62c0 .671-.571 1.142-1.273 1.052M315.196 125.595l-4.552-.654c-.701-.092-1.272-.71-1.272-1.381v-.62c0-.672.571-1.142 1.272-1.052l4.552.653c.702.093 1.272.711 1.272 1.382v.62c0 .671-.57 1.142-1.272 1.052"/><path fill="#CCD4FC" d="m283.467 139.472-21.579-2.849c-1.559-.205-2.827-1.579-2.827-3.07l.055-.084c0-1.491 1.267-2.537 2.827-2.336l21.579 2.849c1.559.205 2.827 1.578 2.827 3.069l-.055.084c0 1.491-1.267 2.538-2.827 2.337"/><path fill="#ADDAD1" d="m336.557 148.3-27.819-3.619c-1.559-.205-2.826-1.578-2.826-3.069l.054-1.324c0-1.491 1.267-2.538 2.827-2.337l27.818 3.618c1.56.205 2.827 1.579 2.827 3.07l-.054 1.324c0 1.491-1.268 2.537-2.827 2.337"/><path fill="#CCD4FC" fill-opacity=".5" d="m267.612 151.04-7.489-.974c-.42-.056-.761-.425-.761-.827v-2.19c0-.401.341-.683.761-.629l7.489.974c.42.055.762.425.762.827v2.19c0 .401-.342.683-.762.629M277.511 152.546l-7.489-.974c-.42-.055-.761-.425-.761-.827v-2.19c0-.401.341-.683.761-.629l7.489.974c.42.056.761.425.761.827v2.19c0 .401-.341.683-.761.629M291.045 153.373l-11.108-1.485c-.42-.056-.761-.425-.761-.827v-.371c0-.401.341-.683.761-.629l11.108 1.486c.42.055.761.425.761.826v.371c0 .402-.341.683-.761.629M279.077 146.407l-18.849-2.552c-.42-.056-.761-.425-.761-.827v-.371c0-.401.341-.683.761-.629l18.849 2.552c.42.056.761.425.761.827v.371c0 .401-.341.683-.761.629M337.277 155.445l-18.569-2.484c-.702-.092-1.272-.71-1.272-1.381v-.62c0-.671.57-1.142 1.272-1.052l18.569 2.484c.702.092 1.273.71 1.273 1.381v.621c0 .671-.571 1.142-1.273 1.051M337.277 160.57l-18.569-2.484c-.702-.093-1.272-.711-1.272-1.382v-.62c0-.671.57-1.142 1.272-1.052l18.569 2.485c.702.092 1.273.71 1.273 1.381v.62c0 .671-.571 1.142-1.273 1.052M315.196 157.535l-4.552-.654c-.701-.092-1.272-.71-1.272-1.381v-.62c0-.671.571-1.142 1.272-1.052l4.552.654c.702.092 1.272.71 1.272 1.381v.62c0 .671-.57 1.142-1.272 1.052"/><path fill="#CCD4FC" d="m292.756 175.265-30.868-4.391c-1.559-.205-2.827-1.578-2.827-3.069l.055-.395c0-1.491 1.267-2.538 2.827-2.337l30.868 4.39c1.559.205 2.827 1.578 2.827 3.069l-.055.396c0 1.491-1.267 2.537-2.827 2.337"/><path fill="#FFDBDB" d="m336.557 182.24-27.819-3.619c-1.559-.205-2.826-1.578-2.826-3.069l.054-1.324c0-1.491 1.267-2.538 2.827-2.337l27.818 3.619c1.56.204 2.827 1.578 2.827 3.069l-.054 1.324c0 1.491-1.268 2.537-2.827 2.337"/><path fill="#CCD4FC" fill-opacity=".5" d="m267.612 184.98-7.489-.974c-.42-.055-.761-.425-.761-.826v-2.191c0-.401.341-.683.761-.629l7.489.974c.42.056.762.425.762.827v2.19c0 .401-.342.683-.762.629M277.511 186.486l-7.489-.974c-.42-.055-.761-.425-.761-.826v-2.191c0-.401.341-.683.761-.629l7.489.975c.42.055.761.424.761.826v2.19c0 .401-.341.683-.761.629M291.045 187.314l-11.108-1.486c-.42-.055-.761-.425-.761-.827v-.371c0-.401.341-.683.761-.629l11.108 1.486c.42.055.761.425.761.827v.371c0 .401-.341.683-.761.629M262.115 177.684l-1.887-.33c-.42-.055-.761-.425-.761-.826v-.371c0-.401.341-.683.761-.629l1.887.329c.42.055.761.425.761.827v.371c0 .401-.341.683-.761.629M337.277 189.385l-18.569-2.484c-.702-.092-1.272-.71-1.272-1.381v-.62c0-.671.57-1.142 1.272-1.052l18.569 2.484c.702.092 1.273.71 1.273 1.382v.62c0 .671-.571 1.142-1.273 1.051M337.277 194.51l-18.569-2.484c-.702-.092-1.272-.71-1.272-1.381v-.621c0-.671.57-1.142 1.272-1.051l18.569 2.484c.702.092 1.273.71 1.273 1.381v.62c0 .671-.571 1.142-1.273 1.052M315.196 191.475l-4.552-.654c-.701-.092-1.272-.71-1.272-1.381v-.62c0-.671.571-1.142 1.272-1.052l4.552.654c.702.092 1.272.71 1.272 1.381v.62c0 .671-.57 1.142-1.272 1.052"/><path fill="#CCD4FC" d="m277.362 204.567-15.474-2.019c-1.559-.205-2.827-1.579-2.827-3.07l.055-.128c0-1.491 1.267-2.538 2.827-2.337l15.473 2.019c1.56.205 2.827 1.579 2.827 3.07l-.054.128c0 1.491-1.268 2.538-2.827 2.337"/><path fill="#ADDAD1" d="m336.557 214.18-27.819-3.619c-1.559-.204-2.826-1.578-2.826-3.069l.054-1.324c0-1.491 1.267-2.537 2.827-2.337l27.818 3.619c1.56.205 2.827 1.578 2.827 3.069l-.054 1.324c0 1.491-1.268 2.538-2.827 2.337"/><path fill="#CCD4FC" fill-opacity=".5" d="m267.612 216.92-7.489-.974c-.42-.055-.761-.425-.761-.826v-2.19c0-.402.341-.684.761-.63l7.489.975c.42.055.762.425.762.826v2.19c0 .402-.342.683-.762.629M277.511 218.426l-7.489-.974c-.42-.055-.761-.425-.761-.826v-2.19c0-.402.341-.683.761-.629l7.489.974c.42.055.761.425.761.826v2.19c0 .402-.341.683-.761.629M291.045 219.254l-11.108-1.486c-.42-.055-.761-.425-.761-.826v-.371c0-.402.341-.683.761-.629l11.108 1.485c.42.056.761.425.761.827v.371c0 .401-.341.683-.761.629M279.077 211.907l-18.849-2.553c-.42-.055-.761-.425-.761-.826v-.371c0-.401.341-.683.761-.629l18.849 2.552c.42.055.761.425.761.826v.371c0 .402-.341.684-.761.63M337.277 221.326l-18.569-2.484c-.702-.093-1.272-.711-1.272-1.382v-.62c0-.671.57-1.142 1.272-1.052l18.569 2.484c.702.093 1.273.711 1.273 1.382v.62c0 .671-.571 1.142-1.273 1.052M337.277 226.45l-18.569-2.484c-.702-.092-1.272-.71-1.272-1.381v-.62c0-.672.57-1.142 1.272-1.052l18.569 2.484c.702.092 1.273.71 1.273 1.381v.62c0 .671-.571 1.142-1.273 1.052M315.196 223.415l-4.552-.653c-.701-.093-1.272-.711-1.272-1.382v-.62c0-.671.571-1.142 1.272-1.052l4.552.654c.702.092 1.272.71 1.272 1.381v.62c0 .672-.57 1.142-1.272 1.052"/><path fill="#CCD4FC" d="m289.706 238.618-27.818-3.619c-1.559-.205-2.827-1.578-2.827-3.069l.054-.64c0-1.491 1.268-2.537 2.827-2.337l27.819 3.619c1.559.205 2.827 1.578 2.827 3.069l-.055.64c0 1.491-1.267 2.537-2.827 2.337"/><path fill="#FFDBDB" d="m336.557 246.12-27.819-3.618c-1.559-.205-2.826-1.579-2.826-3.07l.054-1.324c0-1.491 1.267-2.537 2.827-2.337l27.818 3.619c1.56.205 2.827 1.578 2.827 3.069l-.054 1.324c0 1.491-1.268 2.538-2.827 2.337"/><path fill="#CCD4FC" fill-opacity=".5" d="m267.612 248.86-7.489-.974c-.42-.055-.761-.425-.761-.826v-2.19c0-.402.341-.683.761-.629l7.489.974c.42.055.762.425.762.826v2.19c0 .402-.342.683-.762.629M277.511 250.367l-7.489-.975c-.42-.055-.761-.425-.761-.826v-2.19c0-.402.341-.683.761-.629l7.489.974c.42.055.761.425.761.826v2.19c0 .402-.341.684-.761.63M291.045 251.194l-11.108-1.486c-.42-.055-.761-.425-.761-.826v-.371c0-.402.341-.683.761-.629l11.108 1.486c.42.055.761.425.761.826v.371c0 .401-.341.683-.761.629M262.115 241.684l-1.887-.33c-.42-.055-.761-.425-.761-.826v-.371c0-.401.341-.683.761-.629l1.887.329c.42.055.761.425.761.827v.371c0 .401-.341.683-.761.629M337.277 253.266l-18.569-2.484c-.702-.092-1.272-.711-1.272-1.382v-.62c0-.671.57-1.142 1.272-1.052l18.569 2.485c.702.092 1.273.71 1.273 1.381v.62c0 .671-.571 1.142-1.273 1.052M337.277 258.39l-18.569-2.484c-.702-.092-1.272-.71-1.272-1.381v-.62c0-.671.57-1.142 1.272-1.052l18.569 2.484c.702.092 1.273.71 1.273 1.381v.621c0 .671-.571 1.142-1.273 1.051M315.196 255.355l-4.552-.653c-.701-.092-1.272-.711-1.272-1.382v-.62c0-.671.571-1.142 1.272-1.051l4.552.653c.702.092 1.272.71 1.272 1.381v.621c0 .671-.57 1.142-1.272 1.051"/><path fill="#fff" d="M27.815 182.734a2.97 2.97 0 0 1 2.387-.707c3.125.465 14.827 2.343 21.229 3.187l.699.094.701.093.702.093.353.046.352.046.705.093c2.948.322 29.558 4.538 32.932 5.039a3.9 3.9 0 0 1 2.4 1.311c.594.689.947 1.586.947 2.565v6.255q-.001.397-.078.782l.363.05 1.835.244 1.84.243 1.844.245.925.122.926.122 1.849.244c7.734.843 77.591 11.911 86.449 13.227 2.55.382 4.748 1.637 6.301 3.441a10.27 10.27 0 0 1 2.485 6.734v6.857c0 3.156-1.401 6.201-3.86 8.295-2.427 2.098-5.627 3.049-8.754 2.586-8.929-1.326-65.947-9.405-81.848-11.494l-2.173-.285-2.172-.284-2.177-.284-2.172-.285c-17.362-2.272-48.878-8.405-57.286-9.656a10.23 10.23 0 0 1-6.276-3.44c-1.554-1.804-2.473-4.158-2.473-6.73v-18.141q0-.19.024-.374a4 4 0 0 1-.024-.439v-7.64c0-.86.38-1.688 1.045-2.253z"/><path fill="#6079F1" d="m27.815 182.734-.23-.264a.35.35 0 0 0-.12.264zm2.387-.707-.051.346zm21.229 3.187.046-.347zm.699.094-.047.347zm.701.093-.046.347zm.702.093-.046.347zm.353.046.046-.347-.001-.001zm.352.046-.046.347zm.705.093-.045.347.007.001zm32.932 5.039.052-.346zm2.4 1.311-.265.228zm.947 2.565h.35zm0 6.255h.35zm-.078.782-.344-.067a.348.348 0 0 0 .297.414zm.363.05.046-.347zm1.835.244-.046.347zm1.84.243.046-.347zm1.844.245-.046.347zm.925.122-.046.347zm.926.122.046-.347zm1.849.244-.045.347.008.001zm86.449 13.227.051-.346zm6.301 3.441-.265.228zm2.485 6.734h.35zm-3.86 15.152-.226-.267-.002.002zm-8.754 2.586-.052.347zm-81.848-11.494.046-.347h-.001zm-2.173-.285.046-.347zm-2.172-.284.046-.347zm-2.177-.284-.046.347zm-2.172-.285.045-.347zm-57.286-9.656.052-.346zm-6.276-3.44-.265.228zm-2.45-25.245.348.045a.4.4 0 0 0 0-.083zm-.023-8.079h-.35zm1.045-2.253.227.267a.35.35 0 0 0 .123-.267zm0-.002.23.263a2.62 2.62 0 0 1 2.106-.624l.051-.346.052-.346a3.32 3.32 0 0 0-2.669.789zm2.387-.707-.051.346c3.116.463 14.83 2.344 21.234 3.188l.046-.347.045-.347c-6.398-.843-18.088-2.72-21.222-3.186zm21.229 3.187-.047.347.7.094.046-.347.046-.347-.699-.094zm.699.094-.046.347.701.093.046-.347.046-.347-.701-.093zm.701.093-.046.347.702.093.046-.347.046-.347-.702-.093zm.702.093-.045.347.352.046.046-.347.045-.348-.353-.045zm.353.046-.047.346.353.047.046-.347.046-.347-.352-.046zm.352.046-.045.347.705.093.045-.347.046-.347-.705-.093zm.705.093-.038.348c2.94.321 29.529 4.534 32.918 5.037l.052-.346.051-.346c-3.358-.499-29.989-4.718-32.945-5.041zm32.932 5.039-.052.346c.888.133 1.65.569 2.187 1.193l.265-.228.265-.229a4.27 4.27 0 0 0-2.613-1.428zm2.4 1.311-.265.228c.54.627.861 1.443.862 2.337h.7a4.26 4.26 0 0 0-1.032-2.794zm.947 2.565h-.35v6.255h.7v-6.255zm0 6.255h-.35q-.001.359-.072.715l.344.067.343.067a4.4 4.4 0 0 0 .085-.849zm-.078.782-.047.347.18.025.184.025.046-.347.045-.347-.178-.024-.184-.026zm.363.05-.046.347 1.835.244.046-.347.046-.347-1.835-.244zm1.835.244-.046.347 1.84.243.046-.347.045-.347-1.84-.243zm1.84.243-.046.347 1.844.245.046-.347.046-.347-1.844-.245zm1.844.245-.045.347.924.122.046-.347.046-.347-.925-.122zm.925.122-.046.347.926.122.046-.347.046-.347-.926-.122zm.926.122-.046.347 1.85.244.045-.347.046-.347-1.85-.244zm1.849.244-.037.348c7.724.842 77.561 11.907 86.434 13.226l.052-.347.051-.346c-8.842-1.314-78.72-12.385-86.462-13.229zm86.449 13.227-.052.347c2.467.368 4.589 1.581 6.088 3.322l.265-.228.266-.229c-1.609-1.867-3.882-3.164-6.516-3.558zm6.301 3.441-.265.228a9.92 9.92 0 0 1 2.4 6.506h.7c0-2.657-.957-5.091-2.569-6.963zm2.485 6.734h-.35v6.857h.7v-6.857zm0 6.857h-.35c0 3.052-1.356 6-3.736 8.028l.226.267.227.266c2.536-2.16 3.983-5.302 3.983-8.561zm-3.86 8.295-.228-.265c-2.353 2.034-5.451 2.952-8.475 2.505l-.051.346-.052.347c3.231.477 6.532-.505 9.035-2.669zm-8.754 2.586.051-.346c-8.93-1.326-65.95-9.405-81.853-11.495l-.046.347-.046.347c15.899 2.089 72.915 10.167 81.842 11.494zm-81.848-11.494.045-.347-2.172-.285-.046.347-.045.347 2.172.285zm-2.173-.285.046-.347-2.172-.284-.046.347-.045.347 2.172.284zm-2.172-.284.046-.347-2.178-.284-.046.347-.045.347 2.178.284zm-2.177-.284.045-.347-2.172-.285-.045.347-.046.347 2.172.285zm-2.172-.285.045-.347c-8.672-1.135-20.884-3.235-31.985-5.209-11.093-1.972-21.084-3.82-25.294-4.446l-.051.346-.052.347c4.197.624 14.168 2.468 25.275 4.443 11.1 1.973 23.326 4.076 32.016 5.213zm-57.286-9.656.052-.346a9.88 9.88 0 0 1-6.063-3.322l-.265.228-.265.228a10.58 10.58 0 0 0 6.49 3.559zm-6.276-3.44.265-.228c-1.5-1.742-2.389-4.015-2.389-6.502h-.7c0 2.657.951 5.091 2.559 6.958zm-2.473-6.73h.35v-18.141h-.7v18.141zm0-18.141h.35q0-.165.021-.329l-.347-.045-.347-.045a3 3 0 0 0-.027.419zm.024-.374.348-.038a4 4 0 0 1-.023-.401h-.7q0 .243.027.477zm-.024-.439h.35v-7.64h-.7v7.64zm0-7.64h.35c0-.757.334-1.488.922-1.986l-.227-.267-.226-.267a3.31 3.31 0 0 0-1.17 2.52zm1.045-2.253h.35v-.002h-.7v.002z"/><path fill="#93A3F6" d="m52.888 197.963-18.785-3.065c-2.053-.27-3.721-2.078-3.721-4.04l.071-1.634c0-1.962 1.669-3.339 3.721-3.075l18.785 3.065c2.052.27 3.72 2.077 3.72 4.04l-.07 1.633c0 1.963-1.67 3.34-3.721 3.076"/><path fill="#ADDAD1" d="m68.813 200.41-6.755-1.087c-1.923-.253-3.487-1.946-3.487-3.785l.068-1.633c0-1.839 1.563-3.129 3.486-2.882l6.755 1.088c1.923.252 3.486 1.946 3.486 3.785l-.067 1.633c0 1.838-1.563 3.129-3.486 2.881"/><path fill="#CCD4FC" d="m85.186 201.422-9.236-1.201c-.517-.068-.938-.524-.938-1.019v-2.701c0-.495.42-.842.938-.776l9.236 1.202c.518.068.938.524.938 1.019v2.701c0 .495-.42.842-.938.775M184.166 234.47l-13.834-1.799c-.775-.102-1.406-.785-1.406-1.527v-4.045c0-.742.631-1.262 1.406-1.162l13.834 1.799c.775.102 1.406.785 1.406 1.526v4.046c0 .741-.631 1.262-1.406 1.162M122.006 225.111l-14.572-1.896c-.817-.107-1.481-.827-1.481-1.608v-4.261c0-.781.664-1.329 1.481-1.224l14.572 1.895c.817.108 1.481.827 1.481 1.608v4.262c0 .781-.664 1.329-1.481 1.224"/><path fill="#EDF0FE" d="m102.608 222.082-14.572-1.896c-.817-.107-1.48-.826-1.48-1.607v-4.262c0-.781.663-1.329 1.48-1.224l14.572 1.895c.817.108 1.481.827 1.481 1.608v4.262c0 .781-.664 1.329-1.481 1.224M83.087 219.403l-14.572-1.896c-.817-.107-1.481-.827-1.481-1.608v-4.261c0-.781.664-1.329 1.48-1.224l14.573 1.895c.817.108 1.48.827 1.48 1.608v4.262c0 .781-.663 1.329-1.48 1.224M63.386 216.523l-14.572-1.895c-.817-.108-1.48-.827-1.48-1.608v-4.262c0-.781.663-1.329 1.48-1.224l14.572 1.896c.817.107 1.481.827 1.481 1.608v4.261c0 .781-.664 1.329-1.48 1.224M41.334 213.199l-6.222-1.234c-.817-.107-1.481-.826-1.481-1.607v-4.262c0-.781.664-1.329 1.48-1.224l6.223 1.233c.816.108 1.48.827 1.48 1.608v4.262c0 .781-.663 1.329-1.48 1.224"/><path fill="#B0DBD2" d="M36.566 211.756c1.651-.819 2.247-2.963 1.332-4.788-.916-1.825-2.996-2.64-4.647-1.821s-2.247 2.962-1.332 4.787c.916 1.825 2.996 2.641 4.647 1.822"/><path fill="#008F75" d="m163.048 232.918-34.305-4.463c-1.923-.252-3.486-1.946-3.486-3.784l.067-4.461c0-1.838 1.563-3.129 3.486-2.881l34.305 4.462c1.923.253 3.486 1.946 3.486 3.785l-.067 4.46c0 1.839-1.563 3.129-3.486 2.882"/><path stroke="#FFDBDB" stroke-linecap="round" d="M155.529 104.91v20.885"/><path fill="#FFDBDB" d="m155.715 121.487-.372-.054c-1.034-.164-1.874-1.26-1.874-2.451v-6.495c0-1.191.84-2.026 1.874-1.866l.372.055c1.034.163 1.874 1.26 1.874 2.45v6.496c0 1.19-.84 2.025-1.874 1.865"/><path stroke="#ADDAD1" stroke-linecap="round" d="M197.161 115.978v20.885"/><path fill="#ADDAD1" d="m197.261 132.516-.2-.04c-1.033-.163-1.873-1.26-1.873-2.45v-6.496c0-1.19.84-2.025 1.873-1.865l.2.039c1.033.164 1.873 1.26 1.873 2.451v6.495c0 1.19-.84 2.026-1.873 1.866"/><path stroke="#ADDAD1" stroke-linecap="round" d="M217.371 113.039v20.885"/><path fill="#ADDAD1" d="m217.471 129.576-.2-.039c-1.033-.164-1.873-1.26-1.873-2.45v-6.496c0-1.19.84-2.026 1.873-1.866l.2.04c1.033.163 1.873 1.26 1.873 2.45v6.496c0 1.19-.84 2.025-1.873 1.865"/><path stroke="#FFDBDB" stroke-linecap="round" d="M207.38 112.29v20.885"/><path fill="#FFDBDB" d="m207.485 128.999-.21-.052c-1.034-.164-1.874-1.26-1.874-2.451v-6.495c0-1.19.84-2.026 1.874-1.866l.21.052c1.033.164 1.873 1.26 1.873 2.451v6.495c0 1.191-.84 2.026-1.873 1.866"/><path stroke="#ADDAD1" stroke-linecap="round" d="M227.59 117.16v20.885"/><path fill="#ADDAD1" d="m227.695 133.869-.21-.052c-1.033-.164-1.874-1.26-1.874-2.451v-6.495c0-1.19.841-2.026 1.874-1.866l.21.052c1.033.164 1.874 1.26 1.874 2.451v6.495c0 1.191-.841 2.026-1.874 1.866"/><path stroke="#FFDBDB" stroke-linecap="round" d="M160.863 107.824v27.366"/><path fill="#FFDBDB" d="m161.033 130.926-.34-.086c-1.033-.163-1.874-1.26-1.874-2.45v-9.469c0-1.19.841-2.026 1.874-1.866l.34.087c1.034.163 1.874 1.26 1.874 2.45v9.469c0 1.19-.84 2.026-1.874 1.865"/><path stroke="#ADDAD1" stroke-linecap="round" d="M171.326 102.952v27.367"/><path fill="#ADDAD1" d="m171.517 125.934-.382-.056c-1.033-.164-1.874-1.26-1.874-2.451v-17.429c0-1.191.841-2.026 1.874-1.866l.382.056c1.033.163 1.873 1.26 1.873 2.45v17.43c0 1.19-.84 2.026-1.873 1.866"/><path stroke="#ADDAD1" stroke-linecap="round" d="M176.761 91.233V118.6"/><path fill="#ADDAD1" d="m176.894 114.871-.266-.109c-1.034-.164-1.874-1.26-1.874-2.451V103.7c0-1.19.84-2.025 1.874-1.865l.266.109c1.033.163 1.874 1.26 1.874 2.45v8.611c0 1.191-.841 2.026-1.874 1.866"/><path stroke="#ADDAD1" stroke-linecap="round" d="M202.268 99.366v34.558"/><path fill="#ADDAD1" d="m202.346 131.636-.156-.043c-1.034-.178-1.874-1.37-1.874-2.665v-18.952c0-1.294.84-2.203 1.874-2.028l.156.043c1.033.178 1.873 1.37 1.873 2.664v18.952c0 1.295-.84 2.203-1.873 2.029"/><path stroke="#ADDAD1" stroke-linecap="round" d="M222.466 107.236v31.406"/><path fill="#ADDAD1" d="m222.565 130.653-.199-.039c-1.034-.163-1.874-1.26-1.874-2.45v-2.855c0-1.19.84-2.026 1.874-1.865l.199.039c1.034.163 1.874 1.26 1.874 2.45v2.855c0 1.19-.84 2.026-1.874 1.865"/><path stroke="#FFDBDB" stroke-linecap="round" d="M166.241 113.777v27.367"/><path fill="#FFDBDB" d="m166.388 139.478-.293-.051c-1.033-.164-1.873-1.26-1.873-2.451v-2.569c0-1.19.84-2.025 1.873-1.865l.293.051c1.033.164 1.873 1.26 1.873 2.451v2.568c0 1.191-.84 2.026-1.873 1.866"/><path stroke="#FFDBDB" stroke-linecap="round" d="M181.777 104.91v27.367"/><path fill="#FFDBDB" d="m181.913 123.149-.272-.024c-1.033-.163-1.873-1.26-1.873-2.45v-4.758c0-1.191.84-2.026 1.873-1.866l.272.023c1.034.164 1.874 1.26 1.874 2.451v4.758c0 1.19-.84 2.026-1.874 1.866"/><path stroke="#FFDBDB" stroke-linecap="round" d="M187.019 111.612v27.367"/><path fill="#FFDBDB" d="m186.975 137.428-.132-.047c-1.034-.164-1.874-1.26-1.874-2.451v-15.288c0-1.19.84-2.025 1.874-1.865l.132.047c1.033.164 1.873 1.26 1.873 2.451v15.287c0 1.191-.84 2.026-1.873 1.866"/><path stroke="#ADDAD1" stroke-linecap="round" d="M192.018 128.52v12.943"/><path fill="#ADDAD1" d="m192.132 140.193-.228-.042c-1.034-.163-1.874-1.26-1.874-2.45v-5.02c0-1.19.84-2.026 1.874-1.866l.228.042c1.034.163 1.874 1.26 1.874 2.45v5.02c0 1.19-.84 2.026-1.874 1.866"/><path stroke="#FFDBDB" stroke-linecap="round" d="M212.452 113.658v27.366"/><path fill="#FFDBDB" d="m212.524 130.299-.144-.042c-1.033-.163-1.874-1.26-1.874-2.45v-2.909c0-1.19.841-2.026 1.874-1.866l.144.042c1.033.164 1.874 1.26 1.874 2.451v2.908c0 1.191-.841 2.026-1.874 1.866"/><path stroke="#ADDAD1" stroke-linecap="round" d="M55.624 86.134v20.885"/><path fill="#ADDAD1" d="m55.81 102.711-.372-.055c-1.032-.164-1.87-1.26-1.87-2.451V93.71c0-1.19.838-2.026 1.87-1.866l.372.055c1.032.164 1.871 1.26 1.871 2.45v6.496c0 1.19-.839 2.026-1.87 1.866"/><path stroke="#ADDAD1" stroke-linecap="round" d="M97.204 98.663v20.885"/><path fill="#ADDAD1" d="m97.304 115.2-.2-.039c-1.031-.164-1.87-1.261-1.87-2.451v-6.495c0-1.191.839-2.026 1.87-1.866l.2.039c1.032.164 1.87 1.26 1.87 2.451v6.495c0 1.191-.838 2.026-1.87 1.866"/><path stroke="#ADDAD1" stroke-linecap="round" d="M117.389 95.723v20.885"/><path fill="#ADDAD1" d="m117.489 112.261-.199-.04c-1.032-.163-1.871-1.26-1.871-2.45v-6.496c0-1.19.839-2.025 1.871-1.865l.199.039c1.032.164 1.871 1.26 1.871 2.45v6.496c0 1.19-.839 2.026-1.871 1.866"/><path stroke="#ADDAD1" stroke-linecap="round" d="M107.41 94.974v20.885"/><path fill="#ADDAD1" d="m107.515 111.683-.209-.052c-1.032-.163-1.871-1.26-1.871-2.45v-6.496c0-1.19.839-2.025 1.871-1.865l.209.052c1.032.163 1.871 1.26 1.871 2.45v6.495c0 1.191-.839 2.026-1.871 1.866"/><path stroke="#ADDAD1" stroke-linecap="round" d="M127.595 99.844v20.885"/><path fill="#ADDAD1" d="m127.7 116.553-.209-.052c-1.032-.163-1.871-1.26-1.871-2.45v-6.496c0-1.19.839-2.026 1.871-1.865l.209.052c1.032.163 1.871 1.26 1.871 2.45v6.495c0 1.191-.839 2.026-1.871 1.866"/><path stroke="#ADDAD1" stroke-linecap="round" d="M60.903 77.167v27.367"/><path fill="#ADDAD1" d="m61.073 100.27-.34-.086c-1.032-.164-1.87-1.26-1.87-2.45v-9.47c0-1.19.838-2.025 1.87-1.865l.34.086c1.032.164 1.87 1.26 1.87 2.451v9.468c0 1.19-.838 2.026-1.87 1.866"/><path stroke="#ADDAD1" stroke-linecap="round" d="M71.402 80.439v27.366"/><path fill="#ADDAD1" d="m71.592 103.42-.38-.056c-1.033-.164-1.872-1.26-1.872-2.451v-17.43c0-1.19.84-2.025 1.871-1.865l.381.056c1.032.164 1.87 1.26 1.87 2.45v17.43c0 1.191-.838 2.026-1.87 1.866"/><path stroke="#ADDAD1" stroke-linecap="round" d="M76.83 73.918v27.366"/><path fill="#ADDAD1" d="m76.962 97.555-.265-.109c-1.032-.163-1.871-1.26-1.871-2.45v-17.43c0-1.19.839-2.026 1.87-1.866l.266.11c1.032.163 1.871 1.26 1.871 2.45v17.43c0 1.19-.839 2.025-1.87 1.865"/><path stroke="#ADDAD1" stroke-linecap="round" d="M102.305 82.05v34.558"/><path fill="#ADDAD1" d="m102.382 114.32-.155-.043c-1.032-.178-1.871-1.37-1.871-2.665V92.661c0-1.295.839-2.203 1.871-2.03l.155.044c1.032.178 1.871 1.37 1.871 2.665v18.952c0 1.294-.839 2.202-1.871 2.028"/><path stroke="#ADDAD1" stroke-linecap="round" d="M122.49 79.11v34.559"/><path fill="#ADDAD1" d="m122.567 109.113-.155-.046c-1.032-.19-1.871-1.464-1.871-2.846V85.977c0-1.383.839-2.353 1.871-2.167l.155.046c1.032.19 1.871 1.464 1.871 2.846v20.244c0 1.383-.839 2.353-1.871 2.167"/><path stroke="#FFDBDB" stroke-linecap="round" d="M66.142 90.351v27.367"/><path fill="#FFDBDB" d="m66.288 116.053-.292-.052c-1.032-.163-1.87-1.26-1.87-2.45v-12.128c0-1.19.838-2.026 1.87-1.866l.292.052c1.032.163 1.87 1.26 1.87 2.45v12.128c0 1.19-.838 2.026-1.87 1.866"/><path stroke="#FFDBDB" stroke-linecap="round" d="M81.84 87.594v27.367"/><path fill="#FFDBDB" d="m81.976 105.833-.272-.023c-1.032-.164-1.87-1.26-1.87-2.451v-4.758c0-1.19.838-2.026 1.87-1.866l.272.023c1.032.164 1.87 1.26 1.87 2.45v4.759c0 1.19-.838 2.026-1.87 1.866"/><path stroke="#FFDBDB" stroke-linecap="round" d="M87.075 94.297v27.366"/><path fill="#FFDBDB" d="m87.03 120.112-.131-.047c-1.032-.164-1.87-1.26-1.87-2.451v-15.287c0-1.191.838-2.026 1.87-1.866l.132.048c1.032.163 1.87 1.26 1.87 2.45v15.288c0 1.19-.838 2.026-1.87 1.865"/><path stroke="#FFDBDB" stroke-linecap="round" d="M92.068 111.204v12.944"/><path fill="#FFDBDB" d="m92.182 122.877-.228-.041c-1.032-.164-1.87-1.26-1.87-2.451v-5.02c0-1.19.838-2.026 1.87-1.865l.228.041c1.031.163 1.87 1.26 1.87 2.45v5.02c0 1.191-.839 2.026-1.87 1.866"/><path stroke="#FFDBDB" stroke-linecap="round" d="M112.476 96.342v27.367"/><path fill="#FFDBDB" d="m112.548 112.983-.143-.042c-1.032-.163-1.871-1.26-1.871-2.45v-2.909c0-1.19.839-2.025 1.871-1.865l.143.042c1.032.163 1.871 1.26 1.871 2.45v2.909c0 1.19-.839 2.025-1.871 1.865"/><path stroke="#ADDAD1" stroke-linecap="round" d="M152.649 174.187v20.885"/><path fill="#ADDAD1" d="m152.837 190.764-.376-.054c-1.044-.164-1.893-1.26-1.893-2.451v-6.495c0-1.191.849-2.026 1.893-1.866l.376.055c1.045.163 1.894 1.26 1.894 2.45v6.496c0 1.19-.849 2.025-1.894 1.865"/><path stroke="#ADDAD1" stroke-linecap="round" d="M195.828 177.693v20.885"/><path fill="#ADDAD1" d="m195.928 194.231-.201-.04c-1.044-.163-1.893-1.26-1.893-2.45v-6.495c0-1.191.849-2.026 1.893-1.866l.201.039c1.045.164 1.894 1.26 1.894 2.451v6.495c0 1.19-.849 2.026-1.894 1.866"/><path stroke="#FFDBDB" stroke-linecap="round" d="M216.446 174.774v27.366"/><path fill="#FFDBDB" d="m216.401 200.59-.134-.048c-1.044-.163-1.893-1.26-1.893-2.45v-15.288c0-1.19.849-2.026 1.893-1.866l.134.048c1.044.164 1.893 1.26 1.893 2.45v15.288c0 1.191-.849 2.026-1.893 1.866"/><path stroke="#ADDAD1" stroke-linecap="round" d="M206.075 174.081v20.885"/><path fill="#ADDAD1" d="m206.181 190.79-.212-.052c-1.044-.163-1.893-1.26-1.893-2.45v-6.496c0-1.19.849-2.026 1.893-1.865l.212.052c1.044.163 1.893 1.26 1.893 2.45v6.495c0 1.191-.849 2.026-1.893 1.866"/><path stroke="#ADDAD1" stroke-linecap="round" d="M226.591 178.951v20.885"/><path fill="#ADDAD1" d="m226.696 195.66-.211-.052c-1.045-.164-1.894-1.26-1.894-2.45v-6.496c0-1.19.849-2.026 1.894-1.866l.211.052c1.045.164 1.894 1.261 1.894 2.451v6.495c0 1.191-.849 2.026-1.894 1.866"/><path stroke="#ADDAD1" stroke-linecap="round" d="M158.98 166.595v27.366"/><path fill="#ADDAD1" d="m159.151 189.697-.343-.086c-1.045-.163-1.894-1.26-1.894-2.45v-9.469c0-1.19.849-2.026 1.894-1.866l.343.087c1.045.163 1.894 1.26 1.894 2.45v9.469c0 1.19-.849 2.026-1.894 1.865"/><path stroke="#FFDBDB" stroke-linecap="round" d="M169.732 159.595v8.518"/><path fill="#FFDBDB" d="m169.869 166.437-.274-.023c-1.045-.164-1.894-1.26-1.894-2.451v-1.027c0-1.191.849-2.026 1.894-1.866l.274.023c1.045.164 1.894 1.26 1.894 2.451v1.027c0 1.191-.849 2.026-1.894 1.866"/><path stroke="#ADDAD1" stroke-linecap="round" d="M175.014 146.608v27.366"/><path fill="#ADDAD1" d="m175.148 170.245-.268-.109c-1.045-.163-1.894-1.26-1.894-2.45v-17.43c0-1.19.849-2.026 1.894-1.866l.268.11c1.045.163 1.894 1.26 1.894 2.45v17.43c0 1.19-.849 2.025-1.894 1.865"/><path stroke="#ADDAD1" stroke-linecap="round" d="M200.968 161.05v34.558"/><path fill="#ADDAD1" d="m201.047 193.32-.157-.043c-1.045-.178-1.894-1.37-1.894-2.664v-18.952c0-1.295.849-2.203 1.894-2.029l.157.043c1.045.178 1.894 1.37 1.894 2.665v18.952c0 1.294-.849 2.203-1.894 2.028"/><path stroke="#FFDBDB" stroke-linecap="round" d="M221.484 183.36v34.558"/><path fill="#FFDBDB" d="m221.563 213.362-.158-.046c-1.044-.19-1.893-1.464-1.893-2.846v-20.244c0-1.383.849-2.353 1.893-2.167l.158.046c1.044.19 1.893 1.464 1.893 2.846v20.244c0 1.383-.849 2.353-1.893 2.167"/><path stroke="#ADDAD1" stroke-linecap="round" d="M164.435 148.349v34.558"/><path fill="#ADDAD1" d="m164.514 180.619-.158-.043c-1.044-.178-1.893-1.37-1.893-2.665v-18.952c0-1.294.849-2.203 1.893-2.029l.158.044c1.044.178 1.893 1.37 1.893 2.664v18.952c0 1.295-.849 2.203-1.893 2.029"/><path stroke="#FFDBDB" stroke-linecap="round" d="M180.296 154.11v27.366"/><path fill="#FFDBDB" d="m180.433 172.348-.274-.023c-1.045-.164-1.894-1.26-1.894-2.451v-4.758c0-1.19.849-2.026 1.894-1.866l.274.023c1.045.164 1.894 1.261 1.894 2.451v4.758c0 1.191-.849 2.026-1.894 1.866"/><path stroke="#FFDBDB" stroke-linecap="round" d="M185.574 161.778v27.367"/><path fill="#FFDBDB" d="m185.528 187.594-.133-.047c-1.044-.164-1.893-1.26-1.893-2.451v-15.288c0-1.19.849-2.025 1.893-1.865l.133.047c1.045.164 1.894 1.26 1.894 2.451v15.287c0 1.191-.849 2.026-1.894 1.866"/><path stroke="#FFDBDB" stroke-linecap="round" d="M190.69 180.278v12.944"/><path fill="#FFDBDB" d="m190.805 191.951-.23-.041c-1.045-.164-1.894-1.26-1.894-2.451v-5.02c0-1.19.849-2.026 1.894-1.865l.23.041c1.044.163 1.893 1.26 1.893 2.45v5.02c0 1.191-.849 2.026-1.893 1.866"/><path stroke="#FFDBDB" stroke-linecap="round" d="M211.19 175.449v27.367"/><path fill="#FFDBDB" d="m211.263 192.09-.145-.041c-1.045-.164-1.894-1.261-1.894-2.451v-2.909c0-1.19.849-2.025 1.894-1.865l.145.042c1.044.163 1.893 1.26 1.893 2.45v2.909c0 1.19-.849 2.025-1.893 1.865"/><path stroke="#FFDBDB" stroke-linecap="round" d="M55.352 146.955v20.885"/><path fill="#FFDBDB" d="m55.539 163.532-.374-.054c-1.036-.164-1.88-1.26-1.88-2.451v-6.495c0-1.191.844-2.026 1.88-1.866l.374.055c1.037.163 1.88 1.26 1.88 2.45v6.496c0 1.19-.843 2.025-1.88 1.865"/><path stroke="#ADDAD1" stroke-linecap="round" d="M97.084 158.023v20.885"/><path fill="#ADDAD1" d="m97.184 174.561-.2-.04c-1.037-.163-1.88-1.26-1.88-2.45v-6.495c0-1.191.843-2.026 1.88-1.866l.2.039c1.037.164 1.88 1.26 1.88 2.451v6.495c0 1.19-.843 2.026-1.88 1.866"/><path stroke="#ADDAD1" stroke-linecap="round" d="M117.342 155.084v20.885"/><path fill="#ADDAD1" d="m117.442 171.621-.2-.039c-1.037-.164-1.879-1.26-1.879-2.45v-6.496c0-1.19.842-2.026 1.879-1.865l.2.039c1.037.163 1.879 1.26 1.879 2.45v6.496c0 1.19-.842 2.025-1.879 1.865"/><path stroke="#FFDBDB" stroke-linecap="round" d="M107.327 154.335v20.885"/><path fill="#FFDBDB" d="m107.432 171.044-.21-.052c-1.037-.164-1.879-1.26-1.879-2.45v-6.496c0-1.19.842-2.026 1.879-1.866l.21.052c1.037.164 1.88 1.261 1.88 2.451v6.495c0 1.191-.843 2.026-1.88 1.866"/><path stroke="#ADDAD1" stroke-linecap="round" d="M127.585 159.205v20.885"/><path fill="#ADDAD1" d="m127.69 175.914-.21-.052c-1.036-.164-1.879-1.26-1.879-2.451v-6.495c0-1.19.843-2.026 1.879-1.866l.21.052c1.037.164 1.88 1.26 1.88 2.451v6.495c0 1.191-.843 2.026-1.88 1.866"/><path stroke="#FFDBDB" stroke-linecap="round" d="M60.7 149.869v27.366"/><path fill="#FFDBDB" d="m60.87 172.971-.341-.086c-1.037-.163-1.88-1.26-1.88-2.45v-9.469c0-1.19.843-2.026 1.88-1.865l.34.086c1.037.163 1.88 1.26 1.88 2.45v9.469c0 1.19-.843 2.026-1.88 1.865"/><path stroke="#ADDAD1" stroke-linecap="round" d="M71.187 144.998v27.366"/><path fill="#ADDAD1" d="m71.378 167.979-.382-.056c-1.037-.164-1.88-1.26-1.88-2.451v-17.429c0-1.191.843-2.026 1.88-1.866l.382.056c1.037.163 1.88 1.26 1.88 2.45v17.43c0 1.19-.843 2.026-1.88 1.866"/><path stroke="#ADDAD1" stroke-linecap="round" d="M76.635 133.278v27.367"/><path fill="#ADDAD1" d="m76.769 156.916-.267-.109c-1.037-.164-1.88-1.26-1.88-2.451v-8.611c0-1.19.843-2.025 1.88-1.865l.267.109c1.036.163 1.879 1.26 1.879 2.45v8.611c0 1.191-.843 2.026-1.88 1.866"/><path stroke="#ADDAD1" stroke-linecap="round" d="M102.203 141.411v34.558"/><path fill="#ADDAD1" d="m102.281 173.681-.156-.043c-1.037-.178-1.88-1.37-1.88-2.665v-18.952c0-1.294.843-2.203 1.88-2.028l.156.043c1.037.178 1.879 1.37 1.879 2.664v18.952c0 1.295-.842 2.203-1.879 2.029"/><path stroke="#ADDAD1" stroke-linecap="round" d="M122.449 149.281v31.406"/><path fill="#ADDAD1" d="m122.549 172.698-.2-.039c-1.037-.163-1.879-1.26-1.879-2.45v-2.855c0-1.19.842-2.026 1.879-1.865l.2.039c1.036.163 1.879 1.26 1.879 2.45v2.855c0 1.19-.843 2.026-1.879 1.865"/><path stroke="#FFDBDB" stroke-linecap="round" d="M66.09 155.822v27.367"/><path fill="#FFDBDB" d="m66.237 181.523-.293-.051c-1.037-.164-1.88-1.26-1.88-2.451v-2.569c0-1.19.843-2.025 1.88-1.865l.293.051c1.037.164 1.88 1.26 1.88 2.451v2.569c0 1.19-.843 2.025-1.88 1.865"/><path stroke="#FFDBDB" stroke-linecap="round" d="M81.664 146.955v27.367"/><path fill="#FFDBDB" d="m81.8 165.194-.273-.024c-1.036-.163-1.879-1.26-1.879-2.45v-4.758c0-1.191.843-2.026 1.88-1.866l.272.023c1.037.164 1.88 1.26 1.88 2.451v4.758c0 1.19-.843 2.026-1.88 1.866"/><path stroke="#FFDBDB" stroke-linecap="round" d="M86.918 153.657v27.367"/><path fill="#FFDBDB" d="m86.873 179.473-.132-.047c-1.037-.164-1.88-1.26-1.88-2.451v-15.287c0-1.191.843-2.026 1.88-1.866l.132.047c1.037.164 1.88 1.26 1.88 2.451v15.288c0 1.19-.843 2.025-1.88 1.865"/><path stroke="#ADDAD1" stroke-linecap="round" d="M91.929 170.565v12.943"/><path fill="#ADDAD1" d="m92.043 182.238-.229-.042c-1.036-.163-1.879-1.26-1.879-2.45v-5.02c0-1.19.843-2.026 1.88-1.866l.228.042c1.037.163 1.88 1.26 1.88 2.45v5.02c0 1.19-.843 2.026-1.88 1.866"/><path stroke="#FFDBDB" stroke-linecap="round" d="M112.411 155.703v27.366"/><path fill="#FFDBDB" d="m112.483 172.344-.144-.042c-1.036-.163-1.879-1.26-1.879-2.45v-2.909c0-1.19.843-2.026 1.879-1.866l.144.042c1.037.164 1.88 1.26 1.88 2.451v2.908c0 1.191-.843 2.026-1.88 1.866"/><path fill="#E8ECFC" d="M32.812 105.171v-.017c-.285-.458-.692-.72-1.156-.802-.456-.082-.945.008-1.425.221-.008 0-.025 0-.04.016-.034.008-.082.033-.147.049-.123.041-.302.107-.522.189-.44.164-1.042.385-1.677.614l-1.132.418a268 268 0 0 1-2.231.819c-.024 0-.049.017-.073.025l-.017.008s-.016.008-.024.016l-.016.017-.025.024s-.073.074-.138.131l-.48.484c-.4.401-.929.942-1.45 1.491a34 34 0 0 0-1.409 1.564 6 6 0 0 0-.44.582q-.072.123-.122.221a.3.3 0 0 0-.024.115c0 .041 0 .098.033.156.431.688 1.18 1.441 2.1 2.277.538.483 1.14 1.008 1.792 1.565.464.401.953.819 1.45 1.261 2.344 2.065 4.95 4.547 6.872 7.578a.5.5 0 0 1-.098.049 9 9 0 0 1-.798.295c-.692.229-1.653.516-2.663.795-2.027.565-4.258 1.138-4.975 1.327a.82.82 0 0 0-.48.344 97 97 0 0 0-1.376 2.13c-.26.409-.497.803-.66 1.106a9 9 0 0 0-.195.377.6.6 0 0 0-.05.139c0 .024-.007.049-.007.082 0 .024 0 .09.065.147 2.02 1.909 6.612 5.153 10.984 8.119 1.808 1.228 3.567 2.408 5.106 3.44 2.19 1.467 3.908 2.614 4.592 3.13.041.032.09.041.139.032.049 0 .09-.032.122-.073.285-.418.733-.951 1.213-1.524.293-.344.595-.704.88-1.065.374-.467.716-.926.952-1.327.114-.197.212-.385.269-.557s.081-.344.033-.5a1 1 0 0 0-.082-.188c-.032-.074-.081-.164-.138-.271a28 28 0 0 0-.456-.786c-.375-.623-.871-1.417-1.4-2.245a405 405 0 0 0-2.883-4.473.45.45 0 0 1-.033-.385.45.45 0 0 1 .293-.278 60 60 0 0 1 1.27-.426q.135-.048.245-.082c.09-.033.163-.057.228-.074l.138-.049.04-.016h.01s.056-.025.072-.05l.025-.024.081-.082.293-.311.945-1.016c.725-.787 1.563-1.696 2.02-2.187.244-.271.3-.672.105-.983l-2.834-4.531c-1.36-2.179-3.012-4.817-4.608-7.364-1.572-2.515-3.086-4.932-4.21-6.726a269 269 0 0 1-1.344-2.155 62 62 0 0 0-.374-.598c-.04-.065-.073-.123-.098-.155 0-.009-.008-.017-.016-.025l-.008-.016z"/><path stroke="#6079F1" stroke-linejoin="round" stroke-width=".7" d="M42.868 131.336c-.016.025-.073.05-.073.05h-.008l-.04.016-.14.049a3 3 0 0 0-.227.074q-.11.034-.245.082a60 60 0 0 0-1.27.426.45.45 0 0 0-.293.278.45.45 0 0 0 .033.385 405 405 0 0 1 2.882 4.473c.53.828 1.026 1.622 1.4 2.245.188.311.343.582.457.786.057.107.106.197.138.271.04.073.065.139.082.188.048.156.024.328-.033.5s-.155.36-.269.557c-.236.401-.578.86-.952 1.327-.285.361-.587.721-.88 1.065-.48.573-.928 1.106-1.213 1.524-.033.041-.073.073-.122.073a.17.17 0 0 1-.139-.032c-.684-.516-2.402-1.663-4.592-3.13a1012 1012 0 0 1-5.106-3.44c-4.372-2.966-8.965-6.21-10.984-8.119-.065-.057-.065-.123-.065-.147 0-.033.008-.058.008-.082a.6.6 0 0 1 .049-.139c.049-.099.114-.23.195-.377.163-.303.4-.697.66-1.106a97 97 0 0 1 1.376-2.13.82.82 0 0 1 .48-.344c.717-.189 2.948-.762 4.975-1.327 1.01-.279 1.97-.566 2.663-.795a9 9 0 0 0 .798-.295.5.5 0 0 0 .098-.049c-1.922-3.031-4.528-5.513-6.873-7.578-.496-.442-.985-.86-1.45-1.261a98 98 0 0 1-1.79-1.565c-.92-.836-1.67-1.589-2.101-2.277-.033-.058-.033-.115-.033-.156q0-.063.024-.115.05-.098.123-.221c.097-.156.252-.36.44-.582.374-.45.887-1.015 1.408-1.564s1.05-1.09 1.45-1.491l.48-.484c.065-.057.138-.131.138-.131l.025-.024.016-.017c.008-.008.024-.016.024-.016l.017-.008c.024-.008.049-.025.073-.025.024-.008.049-.016.09-.033.407-.147 1.237-.45 2.141-.786l1.132-.418c.635-.229 1.238-.45 1.677-.614.22-.082.4-.148.522-.189.065-.016.113-.041.146-.049.016-.016.033-.016.04-.016.481-.213.97-.303 1.426-.221.464.082.871.344 1.156.802v.017l.033-.008.008.016c.008.008.016.016.016.025.025.032.057.09.098.155.09.14.212.336.374.598.318.516.782 1.262 1.344 2.155 1.124 1.794 2.638 4.211 4.21 6.726 1.596 2.547 3.249 5.185 4.608 7.364l2.834 4.531c.196.311.139.712-.106.983-.456.491-1.294 1.4-2.02 2.187l-.944 1.016-.293.311-.081.082zm0 0-.13-.122"/><path fill="#fff" fill-rule="evenodd" stroke="#6079F1" stroke-width=".7" d="M29.351 109.148c-.521-.827-1.457-.917-2.37-.5.009-.024-5.927 2.188-5.935 2.18-.391.163-.945.745-1.059 1.196s-.049.917.171 1.261c1.653 2.638 5.382 8.602 9.258 14.803.171.279-5.154 1.696-7.678 2.36a.64.64 0 0 0-.464.483.6.6 0 0 0 .211.615c3.73 2.777 16.44 12.239 18.908 14.09.863.647 2.377.123 1.612-1.098-.31-.491-4.992-7.979-6.449-10.305a.646.646 0 0 1 .375-.934c1.514-.476 4.812-1.508 6.335-1.983a.65.65 0 0 0 .407-.385.62.62 0 0 0-.041-.549c-2.32-3.703-13.273-21.217-13.28-21.234Z" clip-rule="evenodd"/><path stroke="#6079F1" stroke-width=".7" d="M17.942 101.048 9.588 90.03M21.802 98.55l-1.758-7.405M15.322 103.941l-5.895-1.246"/><path stroke="#6079F1" stroke-linecap="round" stroke-linejoin="round" stroke-width=".7" d="m29.74 82.237-8.087 4.014-3.476-7.063 8.087-4.006 3.476 7.063z"/><path fill="#fff" stroke="#6079F1" stroke-linecap="round" stroke-linejoin="round" stroke-width=".7" d="m227.365 261.319-8.83-1.882 1.667-7.693 8.825 1.888-1.667 7.693zM202.911 268.414l-4.992 1.154-.991-4.356 4.99-1.15.992 4.356z"/><path stroke="#6079F1" stroke-linecap="round" stroke-linejoin="round" stroke-width=".7" d="m328.236 61.965 2.957 12.393 8.044-10.949zM345.029 77.079l-4.318 6.283 8.088-.819z"/></svg>