<svg width="54" height="28" viewBox="0 0 54 28" fill="none" xmlns="http://www.w3.org/2000/svg">
<g clip-path="url(#clip0_1625_35229)">
<path d="M7.50192 1.82956C7.51118 1.84005 7.51455 1.85264 7.51286 1.86691L7.45984 2.30087C7.45815 2.31556 7.45142 2.32815 7.43964 2.33823C7.42827 2.3483 7.41481 2.35333 7.40008 2.35333H6.60597C6.59124 2.35333 6.58282 2.36131 6.58114 2.37558L6.27898 4.85762C6.2773 4.87231 6.27056 4.8849 6.25878 4.89539C6.24742 4.90547 6.23395 4.9105 6.21922 4.9105H5.70034C5.68561 4.9105 5.6734 4.90547 5.66456 4.89539C5.65531 4.8849 5.65194 4.87231 5.65362 4.85762L5.95578 2.37558C5.95746 2.36089 5.95115 2.35333 5.93642 2.35333H5.16419C5.14947 2.35333 5.13768 2.3483 5.12842 2.33823C5.11917 2.32815 5.1158 2.31556 5.11748 2.30087L5.17051 1.86691C5.17219 1.85223 5.1785 1.84005 5.19029 1.82956C5.20207 1.81949 5.21512 1.81445 5.22984 1.81445H7.46615C7.48088 1.81445 7.49266 1.81949 7.50192 1.82956Z" fill="#234FFF"/>
<path d="M8.91088 2.66814C8.93318 2.68031 8.93907 2.70255 8.92939 2.73487L8.77453 3.23934C8.76737 3.27459 8.74507 3.2855 8.70846 3.26997C8.66595 3.25529 8.61503 3.24815 8.55611 3.24815C8.53213 3.24815 8.4993 3.25109 8.45722 3.25696C8.34948 3.26578 8.2548 3.30523 8.17231 3.37406C8.08983 3.44331 8.04143 3.53564 8.02755 3.65063L7.88068 4.8585C7.87857 4.87319 7.87226 4.88578 7.86048 4.89627C7.84869 4.90634 7.83565 4.91138 7.8205 4.91138H7.30161C7.28688 4.91138 7.2751 4.90634 7.26584 4.89627C7.25658 4.88578 7.25279 4.87319 7.25448 4.8585L7.51834 2.69038C7.52002 2.67569 7.52676 2.6631 7.53854 2.65303C7.5499 2.64296 7.56337 2.6375 7.5781 2.6375H8.09699C8.11171 2.6375 8.1235 2.64296 8.13276 2.65303C8.14201 2.6631 8.14538 2.67611 8.1437 2.69038L8.12308 2.85868C8.12181 2.86749 8.12434 2.87337 8.12981 2.87631C8.13528 2.87924 8.13991 2.87756 8.1437 2.87169C8.28678 2.69458 8.46016 2.60645 8.66385 2.60645C8.77032 2.60645 8.85238 2.62701 8.90961 2.66814H8.91088Z" fill="#234FFF"/>
<path d="M10.5694 2.65249C10.5808 2.64242 10.5942 2.63696 10.6094 2.63696H11.1283C11.143 2.63696 11.1548 2.64242 11.164 2.65249C11.1733 2.66256 11.1771 2.67557 11.1754 2.68984L10.9115 4.85796C10.9098 4.87265 10.9031 4.88524 10.8913 4.89573C10.88 4.9058 10.8665 4.91084 10.8518 4.91084H10.3329C10.3182 4.91084 10.3059 4.9058 10.2971 4.89573C10.2879 4.88524 10.2845 4.87265 10.2862 4.85796L10.3043 4.70771C10.3055 4.6989 10.303 4.69344 10.2971 4.69218C10.2912 4.69092 10.2849 4.69428 10.2782 4.70309C10.1406 4.86258 9.9474 4.94232 9.69911 4.94232C9.47438 4.94232 9.29763 4.87433 9.16928 4.73877C9.04093 4.60321 8.99169 4.41309 9.02115 4.16799L9.20126 2.68984C9.20295 2.67515 9.20968 2.66256 9.22146 2.65249C9.23283 2.64242 9.24629 2.63696 9.26102 2.63696H9.7757C9.79043 2.63696 9.80221 2.64242 9.81147 2.65249C9.82073 2.66256 9.8241 2.67557 9.82241 2.68984L9.66123 4.01312C9.64692 4.13106 9.66712 4.22675 9.72141 4.30061C9.77612 4.37448 9.85945 4.41099 9.97181 4.41099C10.0724 4.41099 10.1591 4.38035 10.231 4.32034C10.3034 4.2599 10.3531 4.18058 10.3796 4.08321L10.5492 2.68942C10.5509 2.67473 10.5576 2.66214 10.569 2.65207L10.5694 2.65249Z" fill="#234FFF"/>
<path d="M11.7633 4.85813C11.6224 4.80231 11.5172 4.72425 11.4481 4.62353C11.3787 4.52322 11.3522 4.4099 11.3673 4.28274L11.3728 4.23867C11.3745 4.22398 11.3812 4.21139 11.393 4.20132C11.4044 4.19125 11.4178 4.18579 11.4326 4.18579H11.9254C11.9401 4.18579 11.9519 4.19125 11.9611 4.20132C11.9704 4.21139 11.9738 4.2244 11.9721 4.23867V4.24329C11.9637 4.30792 11.9931 4.36332 12.06 4.40907C12.1269 4.45523 12.2149 4.47789 12.3243 4.47789C12.4249 4.47789 12.5086 4.45817 12.5756 4.4183C12.6425 4.37843 12.6795 4.32848 12.6871 4.26973C12.6934 4.21643 12.6719 4.17698 12.6218 4.15054C12.5718 4.1241 12.488 4.09598 12.3702 4.06618C12.2355 4.03092 12.1303 3.99693 12.0541 3.96461C11.8728 3.89998 11.7318 3.82024 11.6308 3.72539C11.5298 3.63138 11.4902 3.4954 11.5117 3.31829C11.5382 3.10005 11.6443 2.92672 11.8303 2.7983C12.0158 2.67029 12.2494 2.60608 12.5301 2.60608C12.7195 2.60608 12.8815 2.6363 13.0162 2.69673C13.1504 2.75717 13.2506 2.84194 13.3158 2.95106C13.3806 3.06018 13.405 3.18399 13.3882 3.32249C13.3865 3.3376 13.3798 3.35019 13.368 3.36026C13.3562 3.37033 13.3432 3.37537 13.328 3.37537H12.8537C12.839 3.37537 12.8268 3.37033 12.818 3.36026C12.8087 3.35019 12.8053 3.3376 12.807 3.32249C12.815 3.25786 12.7885 3.2033 12.7271 3.15881C12.666 3.11474 12.5802 3.0925 12.4712 3.0925C12.374 3.0925 12.2919 3.11013 12.2254 3.1458C12.1589 3.18105 12.1219 3.22974 12.1143 3.29185C12.1072 3.35103 12.132 3.3951 12.1892 3.42447C12.246 3.45385 12.3441 3.48449 12.4817 3.51722C12.5133 3.52604 12.549 3.53569 12.5894 3.54576C12.6294 3.55584 12.6723 3.56885 12.7178 3.58312C12.9202 3.64565 13.0763 3.72497 13.1858 3.82234C13.2952 3.91971 13.3385 4.06156 13.3158 4.24748C13.2893 4.46572 13.182 4.63612 12.9939 4.75867C12.8062 4.8808 12.5655 4.94207 12.2726 4.94207C12.0743 4.94207 11.9047 4.91395 11.7638 4.85771L11.7633 4.85813Z" fill="#234FFF"/>
<path d="M15.1 3.12188C15.0887 3.13196 15.0752 3.13741 15.0605 3.13741H14.6346C14.6199 3.13741 14.6119 3.14497 14.6098 3.15924L14.4957 4.09766C14.4839 4.19503 14.4949 4.26722 14.529 4.31422C14.5631 4.36123 14.6245 4.38515 14.7133 4.38515H14.8597C14.8745 4.38515 14.8867 4.39019 14.8955 4.40026C14.9048 4.41075 14.9081 4.42334 14.9065 4.43803L14.8551 4.85814C14.8513 4.89088 14.8311 4.90976 14.7949 4.91606C14.67 4.92193 14.5812 4.92487 14.5277 4.92487C14.2819 4.92487 14.1039 4.88416 13.9924 4.80316C13.8809 4.72216 13.8375 4.56939 13.862 4.34528L14.0063 3.15966C14.008 3.14497 14.0017 3.13783 13.9869 3.13783H13.734C13.7193 3.13783 13.7075 3.13238 13.6982 3.1223C13.689 3.11223 13.6856 3.09922 13.6873 3.08495L13.7353 2.69128C13.737 2.67659 13.7437 2.664 13.7551 2.65393C13.7664 2.64386 13.7799 2.6384 13.7946 2.6384H14.0475C14.0623 2.6384 14.0707 2.63127 14.0724 2.61616L14.1363 2.08987C14.138 2.07518 14.1448 2.06259 14.1565 2.05252C14.1679 2.04244 14.1814 2.03699 14.1961 2.03699H14.6931C14.7078 2.03699 14.7196 2.04244 14.7289 2.05252C14.7381 2.06259 14.7415 2.0756 14.7398 2.08987L14.6758 2.61616C14.6742 2.63127 14.6805 2.6384 14.6952 2.6384H15.1211C15.1358 2.6384 15.1476 2.64386 15.1569 2.65393C15.1661 2.664 15.1699 2.67701 15.1682 2.69128L15.1202 3.08495C15.1186 3.09964 15.1118 3.11223 15.1 3.1223V3.12188Z" fill="#234FFF"/>
<path d="M17.4012 3.9162C17.394 3.95145 17.3725 3.96908 17.3372 3.96908H15.9661C15.9484 3.96908 15.9417 3.97663 15.9455 3.99132C15.9472 4.0505 15.9564 4.10926 15.9728 4.16843C16.0297 4.33337 16.1765 4.41605 16.413 4.41605C16.6024 4.41311 16.7611 4.33631 16.889 4.18564C16.9029 4.16843 16.9172 4.1592 16.9323 4.1592C16.9412 4.1592 16.9509 4.16507 16.9614 4.17725L17.2425 4.49159C17.2555 4.50628 17.2614 4.51971 17.2598 4.53146C17.2589 4.53734 17.2518 4.54909 17.2379 4.56672C17.1255 4.68801 16.9883 4.78118 16.8263 4.84749C16.6643 4.91422 16.4917 4.94696 16.3087 4.94696C16.0541 4.94696 15.8458 4.88946 15.6842 4.77446C15.5221 4.65947 15.4152 4.49873 15.3635 4.29224C15.3193 4.14493 15.3117 3.95145 15.3408 3.71265C15.3605 3.55023 15.4001 3.40753 15.4594 3.28331C15.5529 3.07388 15.6922 2.90726 15.8773 2.78346C16.0625 2.65965 16.2721 2.59753 16.5056 2.59753C16.8015 2.59753 17.0283 2.68315 17.1865 2.85438C17.3448 3.0252 17.4256 3.25393 17.4294 3.54016C17.4331 3.65221 17.4239 3.77728 17.4012 3.9162ZM16.0448 3.3983C16.0284 3.43649 16.0124 3.4835 15.9964 3.54016C15.9947 3.55485 16.001 3.56198 16.0158 3.56198H16.7834C16.801 3.56198 16.8078 3.55485 16.804 3.54016C16.7994 3.45454 16.7973 3.41299 16.7968 3.41635C16.7808 3.32779 16.7426 3.25896 16.682 3.2107C16.6214 3.16202 16.5422 3.13767 16.4446 3.13767C16.2582 3.13767 16.1248 3.22455 16.0444 3.39872L16.0448 3.3983Z" fill="#234FFF"/>
<path d="M19.4721 1.82956C19.4838 1.81949 19.4969 1.81445 19.5116 1.81445H20.0309C20.0457 1.81445 20.0574 1.81949 20.0667 1.82956C20.076 1.84005 20.0793 1.85264 20.0776 1.86691L19.7136 4.85804C19.7115 4.87273 19.7052 4.88532 19.6934 4.89581C19.6816 4.90589 19.6686 4.91092 19.6539 4.91092H19.1345C19.1198 4.91092 19.108 4.90589 19.0988 4.89581C19.0895 4.88532 19.0862 4.87273 19.0878 4.85804L19.1055 4.71199C19.1068 4.70318 19.1042 4.69814 19.0984 4.69646C19.0925 4.6952 19.0866 4.69772 19.0798 4.70318C18.9355 4.8656 18.7558 4.9466 18.5399 4.9466C18.324 4.9466 18.1616 4.8891 18.0265 4.7741C17.891 4.65911 17.803 4.50131 17.7626 4.30111C17.7311 4.14751 17.7273 3.96872 17.7525 3.76559C17.7778 3.55574 17.8266 3.37318 17.8994 3.21706C17.9903 3.0282 18.1157 2.87837 18.2761 2.76799C18.4355 2.65761 18.6237 2.60179 18.8395 2.60179C19.0554 2.60179 19.2095 2.67566 19.3096 2.82297C19.3142 2.83178 19.3197 2.83472 19.326 2.83178C19.3323 2.82884 19.3361 2.82297 19.3374 2.81415L19.4527 1.86691C19.4544 1.85223 19.4607 1.84005 19.4725 1.82956H19.4721ZM19.2158 3.7744C19.2398 3.57673 19.2259 3.42186 19.1745 3.30981C19.1207 3.19481 19.0285 3.13731 18.898 3.13731C18.7592 3.13731 18.6472 3.19481 18.5622 3.30981C18.4743 3.4248 18.4183 3.58093 18.3943 3.7786C18.3728 3.95571 18.3859 4.10344 18.4334 4.22137C18.4919 4.34812 18.5938 4.41149 18.7385 4.41149C18.8715 4.41149 18.9826 4.34812 19.0723 4.22137C19.1446 4.11183 19.1926 3.96326 19.2158 3.7744Z" fill="#234FFF"/>
<path d="M23.3076 3.76559C23.2827 3.96872 23.236 4.14751 23.167 4.30111C23.0744 4.50172 22.9465 4.65911 22.7832 4.7741C22.6199 4.8891 22.436 4.9466 22.2319 4.9466C22.016 4.9466 21.8557 4.8656 21.7513 4.70318C21.7459 4.6973 21.7404 4.6952 21.7341 4.69646C21.7282 4.69814 21.7244 4.70318 21.7235 4.71199L21.7055 4.85804C21.7038 4.87273 21.697 4.88532 21.6857 4.89581C21.6739 4.90589 21.6608 4.91092 21.6457 4.91092H21.1268C21.1121 4.91092 21.1003 4.90589 21.091 4.89581C21.0818 4.88532 21.078 4.87273 21.0801 4.85804L21.4441 1.86691C21.4458 1.85223 21.4525 1.84005 21.4643 1.82956C21.4757 1.81949 21.4887 1.81445 21.5039 1.81445H22.0228C22.0375 1.81445 22.0497 1.81949 22.059 1.82956C22.0678 1.84005 22.0716 1.85264 22.0699 1.86691L21.9546 2.81415C21.9533 2.82297 21.9558 2.82884 21.9613 2.83178C21.9668 2.83472 21.9731 2.83178 21.9803 2.82297C22.1137 2.67566 22.2866 2.60179 22.4996 2.60179C22.7125 2.60179 22.8901 2.65719 23.0231 2.76799C23.1561 2.87837 23.2449 3.0282 23.2903 3.21706C23.3278 3.37024 23.3337 3.55323 23.3076 3.76559ZM22.6578 3.7786C22.6826 3.57547 22.6662 3.41893 22.6086 3.30981C22.5517 3.19481 22.4537 3.13731 22.3144 3.13731C22.1844 3.13731 22.0783 3.19481 21.9962 3.30981C21.9176 3.42228 21.8662 3.57673 21.8418 3.7744C21.8178 3.97208 21.8292 4.12065 21.8763 4.22137C21.9319 4.34812 22.0278 4.41149 22.1637 4.41149C22.3085 4.41149 22.4242 4.34812 22.5109 4.22137C22.5867 4.1089 22.6355 3.96158 22.6578 3.7786Z" fill="#234FFF"/>
<path d="M23.3378 5.77635C23.3332 5.76628 23.3319 5.75369 23.3336 5.739L23.3833 5.33148C23.3849 5.31679 23.3917 5.3042 23.4035 5.29413C23.4148 5.28406 23.4283 5.2786 23.443 5.2786C23.5676 5.27567 23.6673 5.26559 23.7418 5.24797C23.8167 5.23034 23.8782 5.19634 23.9274 5.1464C23.9762 5.09604 24.0187 5.02259 24.0541 4.92522C24.0579 4.91935 24.0587 4.91054 24.0574 4.89878L23.5983 2.695C23.5958 2.68912 23.5954 2.68198 23.5966 2.67317C23.6 2.64673 23.6177 2.6333 23.6501 2.6333H24.2047C24.2371 2.6333 24.2561 2.64799 24.2615 2.67737L24.4593 4.11061C24.4614 4.11942 24.4652 4.12404 24.4711 4.12404C24.477 4.12404 24.4821 4.11942 24.4858 4.11061L25.0329 2.67737C25.0455 2.64757 25.0679 2.6333 25.1003 2.6333H25.6414C25.6591 2.6333 25.6709 2.63876 25.6772 2.64841C25.6835 2.6589 25.6823 2.67443 25.6739 2.695L24.626 4.99615C24.5258 5.21145 24.4307 5.37261 24.3407 5.48047C24.2506 5.58791 24.1332 5.66682 23.988 5.71718C23.8428 5.76754 23.6433 5.79272 23.3887 5.79272H23.3576C23.3487 5.79272 23.342 5.78727 23.3374 5.77677L23.3378 5.77635Z" fill="#234FFF"/>
<path d="M26.7417 8.42521C26.7324 8.42521 26.7227 8.42479 26.7135 8.42353C26.5864 8.408 26.4955 8.29259 26.511 8.16584L27.2812 1.83777C27.3266 1.46592 27.2248 1.11842 26.995 0.85947C26.7677 0.60388 26.4403 0.463284 26.0721 0.463284H4.86256C4.08612 0.463284 3.37744 1.09408 3.28317 1.86924L2.90821 4.94808C2.8636 5.31363 2.96334 5.65484 3.18933 5.90917C3.41237 6.16057 3.7343 6.29865 4.09622 6.29865H16.6631C16.7915 6.29865 16.895 6.40231 16.895 6.52989C16.895 6.65748 16.7911 6.76114 16.6631 6.76114H4.0958C3.59922 6.76114 3.15398 6.56725 2.84172 6.21597C2.52651 5.86133 2.38638 5.39128 2.44698 4.89227L2.82194 1.81342C2.94356 0.813724 3.85887 0.000366211 4.86256 0.000366211H26.0721C26.575 0.000366211 27.0257 0.196361 27.3422 0.552677C27.6616 0.911932 27.8034 1.38828 27.742 1.89359L26.9718 8.22166C26.9575 8.33918 26.8574 8.42521 26.7417 8.42521Z" fill="url(#paint0_linear_1625_35229)"/>
<path d="M17.083 18.8788C16.5684 18.5959 16.1934 18.1993 15.9577 17.6886C15.7221 17.1782 15.645 16.589 15.7263 15.9208L16.1176 12.7056C16.1989 12.0374 16.4194 11.4482 16.7796 10.9379C17.1394 10.4275 17.6108 10.033 18.1936 9.75475C18.7765 9.47649 19.4309 9.33716 20.1568 9.33716C20.8827 9.33716 21.4875 9.46936 21.9996 9.73418C22.5118 9.99859 22.8893 10.3742 23.1325 10.8615C23.3753 11.3483 23.4582 11.9124 23.3804 12.5528C23.3703 12.6363 23.308 12.6871 23.1944 12.706L21.5493 12.8034H21.5216C21.4281 12.8034 21.3882 12.7526 21.4008 12.6502C21.4605 12.1583 21.3574 11.7642 21.091 11.4671C20.8247 11.1704 20.4446 11.0218 19.9518 11.0218C19.4591 11.0218 19.0285 11.1704 18.6902 11.4671C18.3514 11.7642 18.1524 12.1583 18.0926 12.6502L17.6844 16.0048C17.6255 16.4874 17.7294 16.8773 17.9958 17.174C18.2622 17.4712 18.6464 17.6193 19.1493 17.6193C19.6522 17.6193 20.0583 17.4712 20.3967 17.174C20.735 16.8773 20.9337 16.4874 20.9926 16.0048C21.0048 15.9028 21.0666 15.8516 21.1786 15.8516L22.803 15.9212C22.8497 15.9212 22.8872 15.9351 22.9162 15.9632C22.9457 15.9909 22.9579 16.0236 22.9532 16.0606C22.8754 16.7006 22.6549 17.2668 22.2929 17.7586C21.9306 18.2505 21.461 18.6308 20.884 18.8998C20.307 19.1692 19.6598 19.3031 18.944 19.3031C18.2281 19.3031 17.5977 19.1617 17.0835 18.8788H17.083ZM29.1109 12.1348C29.1811 12.1717 29.2005 12.2414 29.1694 12.3438L28.6833 13.9307C28.6601 14.0423 28.5911 14.0746 28.4758 14.028C28.342 13.9819 28.1817 13.9588 27.9956 13.9588C27.9212 13.9588 27.8176 13.968 27.6851 13.9865C27.3467 14.0142 27.0479 14.1376 26.7891 14.3554C26.5299 14.5736 26.3784 14.8636 26.3342 15.2254L25.8717 19.0253C25.8662 19.0719 25.8448 19.1113 25.8086 19.1432C25.7715 19.1759 25.7303 19.1919 25.684 19.1919H24.0512C24.0045 19.1919 23.967 19.1759 23.9384 19.1432C23.9098 19.1109 23.8984 19.0714 23.9043 19.0253L24.7346 12.2049C24.7401 12.1583 24.7611 12.1193 24.7977 12.0865C24.8344 12.0542 24.876 12.0379 24.9223 12.0379H26.5551C26.6018 12.0379 26.6389 12.0542 26.6679 12.0865C26.6961 12.1193 26.7079 12.1587 26.702 12.2049L26.6376 12.7337C26.6343 12.7614 26.641 12.7803 26.6591 12.7895C26.6763 12.7988 26.6906 12.7941 26.7024 12.7757C27.1515 12.2187 27.6973 11.9405 28.3395 11.9405C28.6744 11.9405 28.9316 12.0055 29.1113 12.1356L29.1109 12.1348ZM30.2673 18.6908C29.7589 18.2828 29.445 17.7259 29.3263 17.0208C29.2489 16.5848 29.2413 16.1114 29.3036 15.601C29.3701 15.0533 29.4951 14.5615 29.6786 14.1254C29.9761 13.4388 30.4276 12.9003 31.0332 12.5108C31.6392 12.1214 32.3328 11.9262 33.1142 11.9262C33.8957 11.9262 34.5051 12.1193 34.9983 12.5041C35.4907 12.8894 35.8071 13.4249 35.9469 14.112C36.039 14.5761 36.0546 15.063 35.9923 15.5733C35.9313 16.0744 35.8088 16.5432 35.6258 16.9793C35.3333 17.7032 34.8847 18.2715 34.2808 18.6845C33.6769 19.0975 32.9842 19.3039 32.2027 19.3039C31.4212 19.3039 30.7761 19.1004 30.2673 18.6916V18.6908ZM33.2232 17.3406C33.4597 17.1551 33.6445 16.9 33.777 16.5751C33.8873 16.2784 33.9643 15.9536 34.0072 15.601C34.0548 15.2111 34.0577 14.8821 34.0161 14.6127C33.9521 14.2975 33.8238 14.0515 33.6314 13.8748C33.4387 13.699 33.1887 13.6104 32.8819 13.6104C32.5751 13.6104 32.2919 13.6986 32.0613 13.8748C31.8303 14.0515 31.6489 14.2975 31.5176 14.6127C31.4162 14.8355 31.3387 15.165 31.2857 15.601C31.2348 16.0186 31.2276 16.3435 31.2647 16.5751C31.3181 16.9 31.4431 17.1551 31.6392 17.3406C31.8349 17.5261 32.0912 17.6189 32.4077 17.6189C32.7241 17.6189 32.9863 17.5261 33.2232 17.3406ZM42.0494 12.1348C42.1196 12.1717 42.139 12.2414 42.1079 12.3438L41.6218 13.9307C41.5986 14.0423 41.5296 14.0746 41.4143 14.028C41.2805 13.9819 41.1202 13.9588 40.9342 13.9588C40.8597 13.9588 40.7561 13.968 40.6236 13.9865C40.2852 14.0142 39.9864 14.1376 39.7276 14.3554C39.4684 14.5736 39.3169 14.8636 39.2727 15.2254L38.8102 19.0253C38.8047 19.0719 38.7833 19.1113 38.7471 19.1432C38.7101 19.1759 38.6688 19.1919 38.6225 19.1919H36.9897C36.943 19.1919 36.9055 19.1759 36.8769 19.1432C36.8483 19.1109 36.8369 19.0714 36.8428 19.0253L37.6731 12.2049C37.6786 12.1583 37.6996 12.1193 37.7362 12.0865C37.7729 12.0542 37.8145 12.0379 37.8608 12.0379H39.4936C39.5404 12.0379 39.5774 12.0542 39.6064 12.0865C39.6346 12.1193 39.6464 12.1587 39.6405 12.2049L39.5761 12.7337C39.5728 12.7614 39.5795 12.7803 39.5976 12.7895C39.6148 12.7988 39.6291 12.7941 39.6409 12.7757C40.09 12.2187 40.6358 11.9405 41.278 11.9405C41.613 11.9405 41.8701 12.0055 42.0498 12.1356L42.0494 12.1348ZM48.7738 16.0602C48.7511 16.1714 48.6838 16.2272 48.5718 16.2272H44.2592C44.2036 16.2272 44.1821 16.2503 44.1952 16.2969C44.2002 16.4824 44.2289 16.6683 44.281 16.8538C44.4595 17.3734 44.9211 17.6332 45.6656 17.6332C46.2619 17.6239 46.7614 17.3826 47.1633 16.9092C47.2071 16.8538 47.2525 16.8257 47.2988 16.8257C47.327 16.8257 47.3569 16.8446 47.3901 16.8815L48.2747 17.8699C48.3156 17.9164 48.3337 17.958 48.3294 17.9954C48.3273 18.0142 48.3038 18.0512 48.26 18.1066C47.9065 18.4872 47.4752 18.7814 46.966 18.9904C46.4567 19.1994 45.9139 19.3035 45.3369 19.3035C44.5365 19.3035 43.8817 19.1226 43.3725 18.7609C42.8624 18.3991 42.5266 17.8934 42.3637 17.2437C42.2248 16.7795 42.2013 16.1718 42.2926 15.4201C42.3549 14.9098 42.4795 14.4599 42.6659 14.07C42.96 13.4111 43.3985 12.8869 43.981 12.497C44.5634 12.1075 45.222 11.9124 45.9572 11.9124C46.8877 11.9124 47.6014 12.1814 48.0988 12.7199C48.5963 13.2579 48.8509 13.9772 48.8622 14.8775C48.8753 15.23 48.8458 15.6245 48.7743 16.0606L48.7738 16.0602ZM44.5058 14.4318C44.4536 14.5522 44.4031 14.7008 44.3538 14.8771C44.3484 14.9236 44.3686 14.9467 44.4153 14.9467H46.83C46.886 14.9467 46.907 14.9236 46.8944 14.8771C46.8805 14.608 46.8734 14.4779 46.8721 14.4876C46.8224 14.2093 46.7021 13.9932 46.511 13.8404C46.3204 13.6872 46.0713 13.6109 45.764 13.6109C45.1778 13.6109 44.7583 13.8845 44.5058 14.4322V14.4318Z" fill="url(#paint1_linear_1625_35229)"/>
<path d="M15.0816 27.2347C15.0643 27.2158 15.0576 27.1919 15.061 27.1642L15.7452 21.5429C15.7486 21.5152 15.7612 21.4917 15.7831 21.472C15.805 21.4527 15.8294 21.443 15.8576 21.443H16.8335C16.8609 21.443 16.8836 21.4527 16.9008 21.472C16.9181 21.4913 16.9248 21.5152 16.9215 21.5429L16.2372 27.1642C16.2338 27.1919 16.2212 27.2154 16.1993 27.2347C16.1774 27.254 16.1526 27.2637 16.1248 27.2637H15.1493C15.1216 27.2637 15.0988 27.254 15.082 27.2347H15.0816ZM20.9556 23.3308C21.195 23.6027 21.2863 23.9712 21.2295 24.4371L20.8975 27.1646C20.8941 27.1923 20.8815 27.2158 20.86 27.2351C20.8377 27.2544 20.8133 27.2641 20.7855 27.2641H19.8101C19.7819 27.2641 19.7596 27.2544 19.7427 27.2351C19.7255 27.2163 19.7187 27.1923 19.7221 27.1646L20.0247 24.678C20.0516 24.4564 20.0108 24.2759 19.9026 24.1374C19.7945 23.9989 19.6375 23.9297 19.4317 23.9297C19.2259 23.9297 19.0526 23.9989 18.9103 24.1374C18.7685 24.2759 18.6839 24.4564 18.657 24.678L18.3544 27.1646C18.351 27.1923 18.3384 27.2158 18.3165 27.2351C18.2946 27.2544 18.2698 27.2641 18.242 27.2641H17.2665C17.2388 27.2641 17.216 27.2544 17.1992 27.2351C17.182 27.2163 17.1752 27.1923 17.1786 27.1646L17.6748 23.0899C17.6781 23.0626 17.6907 23.0387 17.7126 23.0194C17.7345 23.0001 17.7593 22.9904 17.7871 22.9904H18.7626C18.7904 22.9904 18.8127 23.0001 18.8299 23.0194C18.8468 23.0387 18.8539 23.0626 18.8506 23.0899L18.8152 23.3811C18.8131 23.3979 18.8173 23.4088 18.8278 23.4143C18.8384 23.4197 18.8468 23.4172 18.8539 23.4059C19.1207 23.0844 19.4797 22.9237 19.93 22.9237C20.3803 22.9237 20.7165 23.0597 20.956 23.3312L20.9556 23.3308ZM25.0966 21.472C25.1184 21.4527 25.1429 21.443 25.171 21.443H26.1465C26.1743 21.443 26.1966 21.4527 26.2139 21.472C26.2307 21.4913 26.2379 21.5152 26.2341 21.5429L25.5498 27.1642C25.5464 27.1919 25.5338 27.2154 25.5123 27.2347C25.49 27.254 25.4656 27.2637 25.4379 27.2637H24.4624C24.4342 27.2637 24.4119 27.254 24.395 27.2347C24.3778 27.2158 24.371 27.1919 24.3744 27.1642L24.4077 26.8897C24.4098 26.8729 24.4056 26.8633 24.3946 26.8608C24.3837 26.8578 24.3723 26.862 24.3597 26.8734C24.0891 27.1785 23.7507 27.3308 23.3451 27.3308C22.9394 27.3308 22.6343 27.223 22.3797 27.0068C22.1251 26.7903 21.9597 26.494 21.8831 26.1167C21.8237 25.8288 21.8174 25.4934 21.8641 25.1107C21.9121 24.7174 22.0039 24.3737 22.1398 24.0799C22.3111 23.7253 22.5467 23.4437 22.8472 23.2355C23.1477 23.0278 23.5008 22.9237 23.9064 22.9237C24.3121 22.9237 24.6012 23.0626 24.7898 23.3396C24.799 23.3564 24.8091 23.3618 24.8209 23.3564C24.8327 23.3509 24.8394 23.3396 24.8415 23.3232L25.0583 21.5437C25.0616 21.516 25.0743 21.4925 25.0961 21.4728L25.0966 21.472ZM24.6147 25.1266C24.6597 24.7552 24.6341 24.4643 24.5373 24.2532C24.4359 24.0371 24.2629 23.9292 24.0184 23.9292C23.757 23.9292 23.5466 24.0371 23.3867 24.2532C23.2213 24.4698 23.1161 24.7636 23.0711 25.1346C23.0307 25.4674 23.0551 25.7448 23.1452 25.9664C23.255 26.2048 23.4461 26.324 23.7188 26.324C23.9687 26.324 24.1779 26.2048 24.3458 25.9664C24.4821 25.7608 24.5718 25.4813 24.6151 25.1262L24.6147 25.1266ZM26.4883 27.2347C26.471 27.2158 26.4643 27.1919 26.4676 27.1642L26.9646 23.0811C26.968 23.0534 26.9806 23.0299 27.0025 23.0105C27.0244 22.9912 27.0488 22.9816 27.077 22.9816H28.0525C28.0803 22.9816 28.1026 22.9912 28.1198 23.0105C28.1367 23.0299 28.1438 23.0534 28.14 23.0811L27.643 27.1642C27.6397 27.1919 27.627 27.2154 27.6056 27.2347C27.5833 27.254 27.5589 27.2637 27.5311 27.2637H26.5556C26.5274 27.2637 26.5051 27.254 26.4883 27.2347ZM27.1864 22.3202C27.0766 22.1951 27.0332 22.0385 27.056 21.8501C27.0795 21.6562 27.1599 21.498 27.2971 21.3759C27.4343 21.2541 27.6001 21.1929 27.7949 21.1929C27.9898 21.1929 28.1404 21.2541 28.2478 21.3759C28.3555 21.498 28.3972 21.6558 28.3736 21.8501C28.3509 22.0385 28.2688 22.1951 28.1287 22.3202C27.9885 22.4448 27.824 22.5073 27.635 22.5073C27.4461 22.5073 27.2963 22.4448 27.1864 22.3202ZM31.7306 23.11C31.9991 23.2347 32.199 23.4055 32.3311 23.6216C32.4632 23.8378 32.5129 24.0791 32.4809 24.3447L32.1379 27.1638C32.1346 27.1915 32.1219 27.215 32.1001 27.2343C32.0782 27.2536 32.0533 27.2633 32.0256 27.2633H31.0501C31.0223 27.2633 30.9996 27.2536 30.9827 27.2343C30.9655 27.2154 30.9588 27.1915 30.9621 27.1638L30.9954 26.8893C30.9975 26.8725 30.9933 26.8616 30.9827 26.8562C30.9722 26.8507 30.9604 26.8562 30.9474 26.8729C30.6768 27.1781 30.2829 27.3304 29.7661 27.3304C29.3327 27.3304 28.9952 27.2251 28.754 27.0144C28.5129 26.8037 28.4174 26.4935 28.4674 26.0831C28.5192 25.6563 28.7098 25.3251 29.0385 25.0893C29.3672 24.8534 29.8099 24.7355 30.3654 24.7355H31.2159C31.2437 24.7355 31.2592 24.7216 31.2626 24.6943L31.2849 24.5109C31.3072 24.328 31.2689 24.1853 31.1704 24.0829C31.0715 23.9804 30.9112 23.9292 30.6886 23.9292C30.5165 23.9292 30.3696 23.9599 30.248 24.0207C30.1268 24.082 30.0426 24.1676 29.9959 24.2784C29.9719 24.3397 29.9324 24.3674 29.8772 24.3615L28.8845 24.2285C28.8192 24.2176 28.7915 24.1924 28.802 24.1534C28.8525 23.9204 28.9712 23.7097 29.158 23.5213C29.3449 23.3329 29.5797 23.186 29.8621 23.0806C30.1444 22.9753 30.4525 22.9228 30.7862 22.9228C31.1473 22.9228 31.4621 22.9854 31.7306 23.11ZM30.8211 26.2661C31.0034 26.1389 31.1069 25.9748 31.1309 25.7755L31.1671 25.4762C31.1704 25.4485 31.1582 25.4347 31.1305 25.4347H30.5304C30.28 25.4347 30.0784 25.4817 29.9252 25.5761C29.772 25.6705 29.6849 25.8036 29.6639 25.9752C29.6458 26.1251 29.6841 26.243 29.7792 26.3286C29.8743 26.4151 30.0106 26.4579 30.1886 26.4579C30.4277 26.4579 30.6381 26.3945 30.8207 26.2665L30.8211 26.2661ZM36.7402 23.3308C36.9796 23.6027 37.0709 23.9712 37.0141 24.4371L36.6821 27.1646C36.6787 27.1923 36.6661 27.2158 36.6446 27.2351C36.6223 27.2544 36.5979 27.2641 36.5701 27.2641H35.5947C35.5665 27.2641 35.5442 27.2544 35.5273 27.2351C35.5101 27.2163 35.5033 27.1923 35.5067 27.1646L35.8093 24.678C35.8362 24.4564 35.7954 24.2759 35.6872 24.1374C35.5791 23.9989 35.4221 23.9297 35.2163 23.9297C35.0105 23.9297 34.8372 23.9989 34.6949 24.1374C34.5531 24.2759 34.4685 24.4564 34.4416 24.678L34.139 27.1646C34.1356 27.1923 34.123 27.2158 34.1011 27.2351C34.0792 27.2544 34.0544 27.2641 34.0266 27.2641H33.0511C33.0234 27.2641 33.0006 27.2544 32.9838 27.2351C32.9666 27.2163 32.9598 27.1923 32.9632 27.1646L33.4594 23.0899C33.4627 23.0626 33.4749 23.0387 33.4972 23.0194C33.5191 23.0001 33.5435 22.9904 33.5717 22.9904H34.5476C34.575 22.9904 34.5977 23.0001 34.615 23.0194C34.6322 23.0387 34.6389 23.0626 34.6356 23.0899L34.6002 23.3811C34.5981 23.3979 34.6023 23.4088 34.6129 23.4143C34.6234 23.4197 34.6318 23.4172 34.6389 23.4059C34.9062 23.0844 35.2647 22.9237 35.715 22.9237C36.1653 22.9237 36.5015 23.0597 36.741 23.3312L36.7402 23.3308ZM38.2577 27.1642C37.9926 27.0589 37.7952 26.912 37.6652 26.7235C37.5351 26.5351 37.4846 26.3215 37.5137 26.0831L37.5238 26C37.5271 25.9727 37.5397 25.9488 37.5616 25.9291C37.5835 25.9102 37.6083 25.9001 37.6361 25.9001H38.5615C38.5893 25.9001 38.6116 25.9098 38.6289 25.9291C38.6461 25.9488 38.6528 25.9723 38.6495 26L38.6486 26.0084C38.6339 26.1305 38.689 26.2342 38.8153 26.3202C38.9411 26.4058 39.1065 26.4491 39.3123 26.4491C39.5012 26.4491 39.6586 26.4117 39.7845 26.337C39.9103 26.2619 39.9802 26.1695 39.9936 26.0583C40.0058 25.9584 39.9646 25.8837 39.8707 25.8338C39.7769 25.7843 39.6191 25.7314 39.3981 25.676C39.1448 25.6093 38.947 25.5459 38.8043 25.4846C38.4635 25.3625 38.1979 25.2127 38.0086 25.0355C37.8188 24.858 37.7443 24.6033 37.7851 24.2705C37.8352 23.8604 38.0346 23.5343 38.3835 23.293C38.7324 23.0517 39.1709 22.9312 39.699 22.9312C40.0546 22.9312 40.3593 22.9883 40.6122 23.1016C40.8652 23.2154 41.0529 23.3748 41.1753 23.5801C41.2974 23.7853 41.3428 24.0182 41.3112 24.2784C41.3079 24.3065 41.2953 24.3296 41.2734 24.3494C41.2515 24.3687 41.2271 24.3783 41.1989 24.3783H40.3067C40.2785 24.3783 40.2566 24.3687 40.2394 24.3494C40.2221 24.33 40.2154 24.3065 40.2188 24.2784C40.2335 24.1567 40.1834 24.0543 40.0685 23.9708C39.9536 23.8877 39.7933 23.8461 39.5875 23.8461C39.404 23.8461 39.25 23.8793 39.125 23.9456C39 24.0123 38.9306 24.1038 38.9167 24.2201C38.9032 24.3309 38.95 24.414 39.0573 24.4698C39.1646 24.5252 39.3481 24.5831 39.6073 24.6444C39.6662 24.6612 39.7335 24.6792 39.8093 24.6981C39.8846 24.7178 39.965 24.7413 40.0509 24.769C40.4313 24.8857 40.7242 25.0351 40.93 25.2181C41.1353 25.4011 41.217 25.6672 41.1745 26.0164C41.1244 26.4264 40.9232 26.747 40.5697 26.977C40.2167 27.2066 39.7647 27.322 39.2147 27.322C38.8422 27.322 38.5232 27.2691 38.2581 27.1642H38.2577Z" fill="url(#paint2_linear_1625_35229)"/>
<path d="M53.9787 15.1239C53.9977 15.1457 54.0036 15.1721 53.9977 15.2032L53.8853 16.1081C53.879 16.1391 53.8651 16.1656 53.8432 16.1874C53.8213 16.2092 53.7948 16.2201 53.7637 16.2201H52.5197C52.4949 16.2201 52.4759 16.2356 52.4637 16.2667L52.3139 17.5262C52.3076 17.5572 52.2937 17.5837 52.2718 17.6055C52.2499 17.6273 52.2234 17.6382 52.1923 17.6382H51.3224C51.2538 17.6382 51.2193 17.6009 51.2193 17.5262L51.3784 16.2667C51.3784 16.2356 51.3658 16.2201 51.3409 16.2201H50.097C50.0658 16.2201 50.0406 16.2092 50.0221 16.1874C50.0035 16.1656 49.9972 16.1391 50.0035 16.1081L50.1159 15.2032C50.1159 15.1721 50.1285 15.1457 50.1534 15.1239C50.1782 15.1021 50.2064 15.0911 50.2375 15.0911H51.4819C51.4941 15.0911 51.5051 15.0865 51.5147 15.0773C51.524 15.0681 51.5291 15.0572 51.5291 15.0446L51.6881 13.757C51.6944 13.7259 51.7083 13.6995 51.7302 13.6776C51.7521 13.6558 51.7786 13.6449 51.8097 13.6449H52.6796C52.7108 13.6449 52.7356 13.6558 52.7545 13.6776C52.773 13.6995 52.7793 13.7259 52.773 13.757L52.614 15.0446C52.614 15.0756 52.6295 15.0911 52.6607 15.0911H53.9047C53.9358 15.0911 53.9606 15.1021 53.9796 15.1239H53.9787Z" fill="url(#paint3_linear_1625_35229)"/>
<path d="M12.5124 19.789C12.5124 19.9686 12.496 20.2532 12.4636 20.6444C12.3655 21.4594 12.0962 22.29 11.6547 23.1369C11.0828 24.2121 10.266 25.0637 9.20424 25.6907C8.14205 26.3181 6.96583 26.6316 5.67555 26.6316C4.38528 26.6316 3.31089 26.3139 2.40442 25.6785C1.49795 25.0431 0.881006 24.1798 0.55444 23.0882C0.407569 22.5669 0.333923 22.0213 0.333923 21.451L0.358332 20.9377C0.390736 20.6935 0.521615 20.5713 0.750548 20.5713H4.54856C4.77708 20.5713 4.89154 20.6855 4.89154 20.9134C4.89154 21.3696 4.94878 21.7364 5.06324 22.013C5.25935 22.4692 5.61832 22.697 6.14142 22.697C6.66451 22.697 7.08871 22.4692 7.4157 22.013C7.72585 21.5895 7.90597 21.0842 7.95478 20.4979C7.97078 20.3841 7.97919 20.2129 7.97919 19.9846C7.97919 19.5775 7.92196 19.2355 7.80749 18.958C7.59497 18.4695 7.21917 18.2248 6.68008 18.2248C6.48397 18.2248 6.26346 18.2945 6.01853 18.4326C5.77361 18.5711 5.45504 18.7788 5.06282 19.0558C4.99717 19.1213 4.91595 19.1536 4.8179 19.1536C4.70343 19.1536 4.62179 19.097 4.57297 18.9824L3.05377 16.2452C3.02094 16.1965 3.00495 16.123 3.00495 16.0252C3.00495 15.9115 3.07018 15.8137 3.20106 15.7319L6.90102 13.4349C6.96625 13.4026 6.99486 13.3657 6.98687 13.325C6.97845 13.2847 6.94184 13.2637 6.87661 13.2637H2.12288C2.00842 13.2637 1.92257 13.2314 1.86575 13.1659C1.80852 13.1009 1.7879 13.011 1.80431 12.8969L2.19653 9.69549C2.24535 9.45123 2.38422 9.3291 2.61315 9.3291H13.1988C13.3128 9.3291 13.3987 9.36184 13.4559 9.42689C13.5127 9.49236 13.5333 9.58175 13.5174 9.69591L13.0763 13.2885C13.0435 13.5004 12.9539 13.6548 12.8066 13.7526L10.0619 15.5611C9.96384 15.6265 9.97183 15.6916 10.0863 15.7566C11.1645 16.1478 11.8997 16.9624 12.2919 18.2005C12.4388 18.6894 12.5124 19.2191 12.5124 19.789Z" fill="url(#paint4_linear_1625_35229)"/>
<path d="M13.8208 9.77698L13.3651 13.4883C13.3423 13.6276 13.2922 13.6608 13.2746 13.6721L10.3485 15.6002H10.3477L10.3468 15.6014C10.1011 15.7651 10.0712 15.9766 10.0754 16.0883C10.0796 16.202 10.1272 16.416 10.4003 16.5709L10.4331 16.5894L10.4689 16.6024C11.4881 16.9721 12.1674 17.7301 12.5448 18.9191C12.6875 19.395 12.7599 19.9205 12.7599 20.4807C12.7599 20.6562 12.7431 20.9474 12.7098 21.3474C12.6113 22.1553 12.3382 22.9947 11.8968 23.842C11.3286 24.9089 10.5063 25.7655 9.45299 26.3879C8.39628 27.0119 7.20743 27.3284 5.91968 27.3284C4.63193 27.3284 3.5748 27.014 2.68979 26.3937C1.80057 25.7705 1.21182 24.9462 0.890306 23.8735C0.746802 23.364 0.673577 22.8222 0.672735 22.2627L0.696723 21.7616H4.6353C4.64203 22.2741 4.71315 22.687 4.8516 23.022L4.85287 23.0249L4.85413 23.0278C5.13525 23.6826 5.6756 24.0288 6.41626 24.0288C7.11358 24.0288 7.70906 23.7123 8.13873 23.1139C8.51453 22.6002 8.73547 21.9853 8.79565 21.2857C8.81501 21.1417 8.82427 20.9462 8.82427 20.6893C8.82427 20.1995 8.75146 19.774 8.60796 19.4252L8.60627 19.421L8.60459 19.4168C8.3058 18.7294 7.74778 18.3659 6.99112 18.3659C6.70117 18.3659 6.39817 18.4574 6.06445 18.6459C5.80521 18.7927 5.47149 19.0085 5.07254 19.2884L3.53776 16.5235L7.44898 14.0952C7.7322 13.9428 7.79491 13.691 7.75788 13.5026V13.5005L7.75703 13.4984C7.71663 13.304 7.5462 13.0766 7.20027 13.0766H2.25086L2.65275 9.79419C2.65444 9.78747 2.65612 9.7816 2.65738 9.77656H13.8208M13.9403 9.32959H2.65402C2.40993 9.32959 2.26222 9.45969 2.21004 9.72032L1.79215 13.1337C1.77448 13.2554 1.79636 13.3511 1.85738 13.4203C1.91798 13.49 2.00972 13.5244 2.13176 13.5244H7.20027C7.26971 13.5244 7.30885 13.5462 7.31769 13.5894C7.3261 13.6331 7.2958 13.6721 7.22636 13.7065L3.28148 16.1558C3.14176 16.2431 3.07232 16.3472 3.07232 16.4685C3.07232 16.5726 3.08958 16.6507 3.12451 16.7031L4.74429 19.6212C4.79648 19.7429 4.88359 19.8038 5.00563 19.8038C5.11 19.8038 5.19711 19.7694 5.26697 19.6997C5.68485 19.4047 6.02447 19.1831 6.2858 19.0353C6.54714 18.888 6.78197 18.8137 6.99112 18.8137C7.56598 18.8137 7.96619 19.0744 8.19302 19.5952C8.31464 19.8907 8.37608 20.2554 8.37608 20.6893C8.37608 20.9327 8.36724 21.1153 8.34999 21.2366C8.2978 21.8619 8.1059 22.4004 7.77513 22.852C7.42668 23.3384 6.97386 23.5814 6.41668 23.5814C5.8595 23.5814 5.47612 23.3384 5.26697 22.852C5.14493 22.5569 5.0839 22.1658 5.0839 21.6794C5.0839 21.4364 4.96186 21.3147 4.7182 21.3147H0.668527C0.424444 21.3147 0.285148 21.4448 0.25064 21.7054L0.224548 22.2527C0.224548 22.8608 0.302823 23.4425 0.459794 23.9982C0.807823 25.162 1.46558 26.0828 2.43224 26.7601C3.39889 27.4375 4.56165 27.7762 5.9201 27.7762C7.27855 27.7762 8.54988 27.4421 9.68234 26.7731C10.8144 26.1046 11.6851 25.1968 12.2949 24.0506C12.7654 23.1479 13.0524 22.2619 13.1572 21.3931C13.1921 20.9764 13.2093 20.6725 13.2093 20.4812C13.2093 19.8734 13.1311 19.3085 12.9741 18.7877C12.5562 17.4678 11.7722 16.599 10.6229 16.1823C10.5009 16.113 10.4924 16.0434 10.5968 15.9737L13.5229 14.0456C13.6798 13.9416 13.7749 13.7766 13.8103 13.5508L14.2804 9.72074C14.2976 9.59945 14.2757 9.50376 14.2151 9.43409C14.1537 9.36484 14.0624 9.33001 13.9408 9.33001L13.9403 9.32959Z" fill="#234FFF"/>
</g>
<defs>
<linearGradient id="paint0_linear_1625_35229" x1="2.43309" y1="4.21279" x2="27.7559" y2="4.21279" gradientUnits="userSpaceOnUse">
<stop stop-color="#FF4200"/>
<stop offset="1" stop-color="#FF7300"/>
</linearGradient>
<linearGradient id="paint1_linear_1625_35229" x1="15.6951" y1="14.3201" x2="48.8647" y2="14.3201" gradientUnits="userSpaceOnUse">
<stop stop-color="#1737AA"/>
<stop offset="1" stop-color="#2E51FF"/>
</linearGradient>
<linearGradient id="paint2_linear_1625_35229" x1="15.0601" y1="24.2621" x2="41.3205" y2="24.2621" gradientUnits="userSpaceOnUse">
<stop stop-color="#1737AA"/>
<stop offset="1" stop-color="#2E51FF"/>
</linearGradient>
<linearGradient id="paint3_linear_1625_35229" x1="50.0006" y1="15.6414" x2="53.9998" y2="15.6414" gradientUnits="userSpaceOnUse">
<stop stop-color="#1737AA"/>
<stop offset="1" stop-color="#2E51FF"/>
</linearGradient>
<linearGradient id="paint4_linear_1625_35229" x1="0.333923" y1="17.9806" x2="13.5224" y2="17.9806" gradientUnits="userSpaceOnUse">
<stop stop-color="#FF4200"/>
<stop offset="1" stop-color="#FF7300"/>
</linearGradient>
<clipPath id="clip0_1625_35229">
<rect width="54" height="28" fill="white"/>
</clipPath>
</defs>
</svg>
