<svg width="169" height="32" viewBox="0 0 169 32" fill="none" xmlns="http://www.w3.org/2000/svg">
<g id="Group 12">
<rect id="Rectangle" width="169" height="32" rx="4" fill="white"/>
<g id="group-63">
<g id="Group">
<path id="Path" d="M10.5793 7.9453C10.523 8.03855 10.523 8.1543 10.5793 8.24675L20.0888 24.1549C20.1427 24.2442 20.2384 24.2988 20.3413 24.2988H23.5309C23.7584 24.2988 23.8991 24.0496 23.7825 23.8543L12.5576 5.07476C12.4981 4.97508 12.3534 4.97508 12.2939 5.07476L10.5793 7.9453Z" fill="#11AF4B"/>
<path id="Shape" fill-rule="evenodd" clip-rule="evenodd" d="M12.0766 11.3428H8.86366C8.75031 11.3428 8.68038 11.465 8.73665 11.563L10.3427 14.3452C10.3998 14.4432 10.5405 14.4432 10.5968 14.3452L12.2037 11.563C12.2599 11.465 12.1892 11.3428 12.0766 11.3428ZM10.1587 14.5693H6.94569C6.83235 14.5693 6.76241 14.6915 6.81868 14.7896L7.62092 16.1802L8.42477 17.5709C8.48104 17.669 8.62252 17.669 8.67879 17.5709L9.48183 16.1802L10.2849 14.7888C10.342 14.6915 10.2712 14.5693 10.1587 14.5693ZM5.01473 17.8467H8.22772C8.34026 17.8467 8.411 17.9689 8.35392 18.0669L7.55088 19.4576L6.74783 20.8491C6.69156 20.9471 6.55009 20.9471 6.49382 20.8491L5.69077 19.4584L4.88692 18.0669C4.83065 17.9689 4.90139 17.8467 5.01473 17.8467ZM6.35985 21.2109H3.14686C3.03352 21.2109 2.96358 21.3331 3.01985 21.4312L3.82209 22.8227L4.62594 24.2133C4.68221 24.3114 4.82369 24.3114 4.87996 24.2133L5.683 22.8219L6.48605 21.4312C6.54312 21.3331 6.47238 21.2109 6.35985 21.2109ZM6.9573 21.2109H10.1703C10.2828 21.2109 10.3536 21.3331 10.2973 21.4312L9.49425 22.8219L8.6904 24.2133C8.63413 24.3114 8.49346 24.3114 8.43719 24.2133L7.63334 22.8227L6.83029 21.4312C6.77402 21.3331 6.84476 21.2109 6.9573 21.2109ZM17.8929 21.2109H14.68C14.5674 21.2109 14.4967 21.3331 14.5529 21.4312L15.356 22.8227L16.1598 24.2133C16.2161 24.3114 16.3568 24.3114 16.4131 24.2133L17.2169 22.8219L18.0199 21.4312C18.0762 21.3331 18.0055 21.2109 17.8929 21.2109ZM8.91433 17.8467H12.1273C12.2399 17.8467 12.3106 17.9689 12.2543 18.0669L11.4505 19.4576L10.6474 20.8491C10.5912 20.9471 10.4505 20.9471 10.3942 20.8491L9.59037 19.4584L8.78732 18.0669C8.73105 17.9689 8.80179 17.8467 8.91433 17.8467ZM15.8864 17.8467H12.6742C12.5609 17.8467 12.4909 17.9689 12.5472 18.0669L13.3494 19.4584L14.1533 20.8491C14.2096 20.9471 14.3502 20.9471 14.4065 20.8491L15.2103 19.4576L16.0134 18.0669C16.0705 17.9689 15.9989 17.8467 15.8864 17.8467ZM10.8695 14.5693H14.0825C14.195 14.5693 14.2658 14.6915 14.2087 14.7888L13.4057 16.1802L12.6026 17.5709C12.5463 17.669 12.4049 17.669 12.3486 17.5709L11.5447 16.1802L10.7425 14.7896C10.6862 14.6915 10.7562 14.5693 10.8695 14.5693ZM14.0316 21.2109H10.8186C10.7061 21.2109 10.6354 21.3331 10.6916 21.4312L11.4947 22.8227L12.2985 24.2133C12.3548 24.3114 12.4963 24.3114 12.5525 24.2133L13.3548 22.8219L14.1586 21.4312C14.2149 21.3331 14.1442 21.2109 14.0316 21.2109Z" fill="#FF7300"/>
</g>
<g id="Group_2">
<path id="Shape_2" fill-rule="evenodd" clip-rule="evenodd" d="M54.8077 13.1166C55.5762 13.877 55.9597 14.9132 55.9597 16.2275V24.0136C55.9597 24.0932 55.9323 24.1599 55.8769 24.2153C55.8206 24.2716 55.7539 24.2981 55.6751 24.2981H53.491C53.4115 24.2981 53.3447 24.2708 53.2893 24.2153C53.233 24.1599 53.2057 24.0932 53.2057 24.0136V16.7966C53.2057 16.0691 52.9999 15.4791 52.5883 15.0281C52.1767 14.5772 51.6317 14.3513 50.9509 14.3513C50.27 14.3513 49.7202 14.5732 49.3006 15.0161C48.8818 15.459 48.672 16.045 48.672 16.7733V24.0136C48.672 24.0932 48.6438 24.1599 48.5884 24.2153C48.5329 24.2716 48.4662 24.2981 48.3874 24.2981H46.2025C46.1238 24.2981 46.0562 24.2708 46.0016 24.2153C45.9453 24.1599 45.918 24.0932 45.918 24.0136V12.4526C45.918 12.373 45.9453 12.3063 46.0008 12.2508C46.0562 12.1946 46.1238 12.1672 46.2025 12.1672H48.3866C48.4662 12.1672 48.5329 12.1954 48.5884 12.2508C48.6446 12.3063 48.672 12.373 48.672 12.4518V13.2123C48.672 13.2597 48.6872 13.291 48.7194 13.3071C48.7515 13.3232 48.7748 13.3071 48.7901 13.2589C49.4388 12.4052 50.4203 11.9775 51.7338 11.9775C53.016 11.9775 54.0409 12.357 54.8085 13.1166H54.8077ZM73.481 14.7906C73.0936 15.084 72.8211 15.4916 72.6627 16.0133C72.5679 16.2826 72.5044 16.6306 72.473 17.0583C72.4409 17.1379 72.473 17.1773 72.5679 17.1773H77.387C77.4657 17.1773 77.5059 17.1371 77.5059 17.0583C77.4738 16.6628 77.4263 16.3622 77.3628 16.1564C77.2206 15.5856 76.94 15.1435 76.5204 14.8268C76.1008 14.5101 75.5751 14.3525 74.9416 14.3525C74.3556 14.3525 73.8693 14.498 73.4819 14.7906H73.481ZM80.2836 18.9334L80.3069 18.1971L80.3077 18.1979C80.3077 17.7084 80.2756 17.2646 80.2129 16.8691C79.8166 13.6087 78.0602 11.9785 74.942 11.9785C73.7081 11.9785 72.6511 12.2993 71.7733 12.9399C70.8947 13.5806 70.2974 14.456 69.9807 15.5629C69.791 16.1328 69.6953 16.8772 69.6953 17.7944C69.6953 19.3136 69.8778 20.5009 70.2419 21.3554C70.6374 22.353 71.266 23.1279 72.1294 23.6826C72.9919 24.2364 74.0401 24.5137 75.2748 24.5137C76.2724 24.5137 77.1775 24.3232 77.9926 23.943C78.8077 23.5636 79.4605 23.0258 79.9516 22.3289C80.0465 22.1866 80.0224 22.0604 79.8801 21.9495L78.4082 20.7373C78.3608 20.6906 78.3053 20.6665 78.2418 20.6665C78.147 20.6665 78.0682 20.7139 78.0047 20.8088C77.3713 21.6954 76.5176 22.1384 75.4404 22.1384C73.9686 22.1231 73.0433 21.5451 72.6631 20.4053C72.5683 20.2156 72.4975 19.8595 72.4493 19.337C72.4493 19.2582 72.4887 19.218 72.5683 19.218H79.9991C80.1888 19.218 80.2836 19.1231 80.2836 18.9334Z" fill="#2E51FF"/>
<path id="Shape_3" fill-rule="evenodd" clip-rule="evenodd" d="M90.3452 23.7779C89.4827 23.3148 88.8163 22.6637 88.3453 21.8253C87.8742 20.9877 87.6387 20.0167 87.6387 18.9154V12.8793C87.6387 11.778 87.8742 10.8078 88.3461 9.96934C88.8163 9.13093 89.4827 8.48061 90.3452 8.0176C91.2078 7.55458 92.2053 7.32227 93.3396 7.32227C94.473 7.32227 95.4746 7.55458 96.346 8.0176C97.2149 8.48061 97.8861 9.13093 98.3572 9.96934C98.8283 10.8078 99.0646 11.778 99.0646 12.8793V18.9154C99.0646 20.0167 98.8283 20.9877 98.3572 21.8253C97.8861 22.6637 97.2157 23.3148 96.3452 23.7779C95.4746 24.2409 94.4722 24.4724 93.3388 24.4724C92.2053 24.4724 91.2078 24.2409 90.3452 23.7779ZM96.261 21.9088C96.9957 21.1748 97.3631 20.2006 97.3631 18.9868V12.8558C97.3631 11.642 96.9957 10.6637 96.2618 9.92175C95.5271 9.179 94.5528 8.80762 93.3398 8.80762C92.1421 8.80762 91.1758 9.179 90.4411 9.92095C89.7064 10.6637 89.3398 11.642 89.3398 12.855V18.9868C89.3398 20.2006 89.7064 21.1748 90.4411 21.9096C91.1758 22.6443 92.1421 23.0108 93.3398 23.0108C94.5528 23.0108 95.5263 22.6443 96.2618 21.9096L96.261 21.9088ZM110.158 16.137C110.158 14.8758 109.779 13.8693 109.021 13.1186C108.262 12.3686 107.245 11.9932 105.967 11.9932C104.514 11.9932 103.436 12.4883 102.733 13.4787C102.717 13.5108 102.698 13.5189 102.674 13.5028C102.65 13.4867 102.638 13.4626 102.638 13.4304V12.3999C102.638 12.2416 102.558 12.1612 102.399 12.1612H101.177C101.017 12.1612 100.938 12.2407 100.938 12.4007V24.0405C100.938 24.2004 101.017 24.2808 101.176 24.2808H102.398C102.557 24.2808 102.638 24.2012 102.638 24.0405V16.424C102.638 15.5462 102.909 14.8356 103.452 14.2922C103.995 13.7496 104.705 13.4779 105.584 13.4779C106.43 13.4779 107.121 13.7576 107.656 14.3163C108.191 14.8758 108.458 15.5944 108.458 16.4722V24.0405C108.458 24.2004 108.538 24.2808 108.697 24.2808H109.919C110.078 24.2808 110.158 24.2012 110.158 24.0405V16.137ZM114.746 14.065C114.228 14.4726 113.888 15.0192 113.728 15.7057C113.632 16.0417 113.568 16.5843 113.537 17.3343C113.537 17.3986 113.569 17.4307 113.633 17.4307H119.836C119.9 17.4307 119.933 17.3986 119.933 17.3343C119.9 16.6164 119.852 16.1052 119.788 15.8021C119.613 15.0835 119.257 14.5128 118.723 14.0891C118.187 13.6663 117.513 13.4541 116.699 13.4541C115.916 13.4541 115.265 13.6583 114.746 14.065ZM121.608 18.6288V17.8619C121.608 17.1915 121.576 16.6329 121.512 16.1851C121.321 14.8443 120.833 13.8065 120.051 13.071C119.268 12.3371 118.15 11.9697 116.698 11.9697C115.532 11.9697 114.538 12.2808 113.715 12.9038C112.893 13.5268 112.347 14.3572 112.075 15.3949C111.979 15.7301 111.92 16.1095 111.896 16.5332C111.871 16.956 111.859 17.5026 111.859 18.173C111.859 19.6103 112.003 20.7124 112.29 21.4793C112.625 22.4214 113.177 23.1553 113.943 23.6818C114.71 24.2091 115.66 24.4808 116.793 24.4969C117.831 24.4969 118.749 24.2775 119.547 23.8386C120.346 23.3989 120.944 22.796 121.345 22.0299C121.407 21.886 121.376 21.7743 121.248 21.6939L120.314 21.1433C120.186 21.0637 120.075 21.0958 119.979 21.2389C119.691 21.7984 119.292 22.2293 118.781 22.5323C118.271 22.8362 117.679 22.9873 117.009 22.9873C116.114 22.9873 115.38 22.7807 114.805 22.3651C114.231 21.9503 113.855 21.3828 113.68 20.6642C113.616 20.4093 113.568 19.8418 113.535 18.964C113.535 18.8997 113.568 18.8676 113.632 18.8676H121.368C121.527 18.8676 121.608 18.788 121.608 18.6288Z" fill="#FF7300"/>
<path id="Shape_4" fill-rule="evenodd" clip-rule="evenodd" d="M44.2396 23.9661L37.3249 7.30791H37.3233C37.1465 6.88991 36.7309 6.5957 36.2478 6.5957C35.7775 6.5957 35.374 6.87464 35.1891 7.27496L28.2776 23.9661C28.2414 24.077 28.2503 24.1598 28.3049 24.2153C28.3596 24.2715 28.4416 24.2981 28.5501 24.2981H31.2744C31.4552 24.2981 31.5734 24.2193 31.6281 24.0609L32.5268 21.5208C32.5629 21.4581 32.6087 21.4259 32.6634 21.4259H39.8538C39.9085 21.4259 39.9535 21.4581 39.9905 21.5208L40.8892 24.0609C40.9431 24.2193 41.0612 24.2981 41.2429 24.2981H43.9671C44.1665 24.2981 44.2662 24.2273 44.2662 24.0851C44.2662 24.0368 44.2573 23.9982 44.2396 23.9661ZM39.0101 19.023H33.4804C33.3896 19.023 33.3534 18.9756 33.3719 18.8807L36.15 11.6935C36.1677 11.6308 36.195 11.5986 36.2312 11.5986C36.2673 11.5986 36.2955 11.6308 36.3132 11.6935L39.1186 18.8807C39.1548 18.9756 39.1186 19.023 39.0101 19.023ZM85.4906 22.0474H85.9994V22.0482C86.1538 22.0482 86.2784 22.1736 86.2784 22.328V24.008C86.2784 24.1624 86.1538 24.287 85.9994 24.287H84.1401C83.0228 24.287 82.116 23.3802 82.116 22.2629V21.9172H82.1152V8.05885C82.1152 7.82413 82.3057 7.63281 82.5405 7.63281H84.4456C84.6803 7.63281 84.8708 7.82413 84.8708 8.05885L84.8716 21.4293C84.8716 21.7717 85.1482 22.0474 85.4906 22.0474ZM65.2846 19.4906C65.2605 19.7679 65.2171 20.0243 65.1536 20.2623C65.0266 20.7687 64.7734 21.1803 64.394 21.4962C64.0138 21.8137 63.5154 21.9712 62.8988 21.9712C62.312 21.9712 61.8096 21.8089 61.3908 21.4849C60.9712 21.1602 60.6826 20.7454 60.5242 20.239C60.3659 19.8427 60.2871 19.1538 60.2871 18.1731C60.2871 17.2237 60.382 16.5268 60.5717 16.0839C60.7461 15.5614 61.0307 15.1426 61.4262 14.8258C61.8217 14.5091 62.3048 14.3516 62.8747 14.3516C63.476 14.3516 63.9703 14.5091 64.3586 14.8258C64.7461 15.1426 65.0033 15.5614 65.1303 16.0839C65.2091 16.3371 65.2605 16.5943 65.2846 16.8556C65.3088 17.1168 65.32 17.5477 65.32 18.1497C65.32 18.7663 65.308 19.214 65.2846 19.4906ZM67.7894 12.1672C67.8674 12.1672 67.9349 12.1954 67.9904 12.25V12.2508C68.0458 12.3063 68.074 12.373 68.074 12.4518V23.4911C68.074 25.4701 67.5072 26.8817 66.3762 27.729C65.2605 28.5634 63.8031 28.9854 62.0049 28.9974V28.9998H61.1408C60.9687 28.9998 60.8088 28.9098 60.7195 28.7619L59.5741 26.8632C59.4736 26.6968 59.5941 26.4838 59.7887 26.4838H61.8321L61.8538 26.4822C63.041 26.4822 63.9148 26.2491 64.4767 25.7828C65.0386 25.315 65.32 24.5272 65.32 23.4195V23.2298C65.32 23.1824 65.3039 23.1551 65.2725 23.147C65.2404 23.139 65.209 23.151 65.1777 23.1824C64.5282 23.8793 63.611 24.2274 62.4237 24.2274C61.3948 24.2274 60.4535 23.9661 59.5982 23.4436C58.7437 22.9211 58.1504 22.1229 57.8176 21.0458C57.6119 20.3022 57.5098 19.3448 57.5098 18.1736C57.5098 16.8601 57.636 15.8553 57.8892 15.1592C58.2059 14.1929 58.7517 13.4221 59.5274 12.8441C60.3023 12.2669 61.2123 11.9775 62.2573 11.9775C63.5073 11.9775 64.4807 12.3417 65.1777 13.0692C65.209 13.1166 65.2404 13.1327 65.2717 13.1166C65.3039 13.1013 65.32 13.0692 65.32 13.0225V12.4518C65.32 12.373 65.3473 12.3063 65.4036 12.25C65.4582 12.1954 65.5257 12.1672 65.6045 12.1672H67.7894Z" fill="#2E51FF"/>
<path id="Shape_5" fill-rule="evenodd" clip-rule="evenodd" d="M119.37 6.80047V6.65175C119.37 6.62925 119.358 6.61719 119.335 6.61719H117.74C117.716 6.61719 117.705 6.62925 117.705 6.65175V6.80047C117.705 6.82297 117.716 6.83503 117.74 6.83503H118.388C118.396 6.83503 118.401 6.83905 118.401 6.8487V8.99497C118.401 9.01829 118.412 9.02954 118.436 9.02954H118.611C118.634 9.02954 118.646 9.01909 118.646 8.99497V6.8487C118.646 6.83905 118.65 6.83503 118.66 6.83503H119.335C119.358 6.83503 119.37 6.82297 119.37 6.80047ZM121.627 6.61799H121.448V6.61719C121.432 6.61719 121.418 6.62523 121.407 6.6413L120.765 7.62039C120.763 7.6228 120.76 7.62361 120.755 7.62361C120.751 7.62361 120.747 7.6228 120.745 7.62039L120.097 6.63809C120.088 6.62442 120.074 6.61799 120.056 6.61799H119.876C119.854 6.61799 119.842 6.62925 119.842 6.65175V8.99578C119.842 9.01828 119.854 9.02954 119.876 9.02954H120.052C120.075 9.02954 120.087 9.01909 120.087 8.99497V7.08985C120.087 7.08262 120.089 7.0786 120.093 7.07619C120.098 7.07377 120.101 7.07619 120.104 7.08262L120.666 7.93711C120.677 7.95158 120.691 7.95801 120.707 7.95801H120.797C120.813 7.95801 120.827 7.94997 120.838 7.93389L121.4 7.07217C121.401 7.06574 121.405 7.06332 121.409 7.06574C121.415 7.06815 121.417 7.07217 121.417 7.0794V8.99578C121.417 9.01828 121.429 9.02954 121.451 9.02954H121.627C121.65 9.02954 121.662 9.01828 121.662 8.99578V6.65175C121.662 6.62925 121.65 6.61799 121.627 6.61799Z" fill="#FF7300"/>
</g>
</g>
</g>
</svg>
