<svg width="50" height="42" viewBox="0 0 50 42" fill="none" xmlns="http://www.w3.org/2000/svg">
<path d="M10.6832 18.8969C12.5939 18.8969 14.1486 17.3435 14.1486 15.4343C14.1486 15.0261 14.0645 14.6404 13.9353 14.2771L18.3485 11.1462C18.9434 11.625 19.6884 11.9252 20.5101 11.9252C21.3318 11.9252 22.0768 11.6265 22.6717 11.1462L27.0849 14.2771C26.9542 14.6404 26.8716 15.0261 26.8716 15.4343C26.8716 17.3435 28.4263 18.8969 30.337 18.8969C32.2477 18.8969 33.8024 17.3435 33.8024 15.4343C33.8024 15.0261 33.7183 14.6404 33.5891 14.2771L38.0024 11.1462C38.5972 11.625 39.3423 11.9252 40.164 11.9252C42.0747 11.9252 43.6294 10.3718 43.6294 8.4626C43.6294 6.55344 42.0747 5 40.164 5C38.2532 5 36.6985 6.55344 36.6985 8.4626C36.6985 8.87085 36.7827 9.25658 36.9118 9.6198L32.4986 12.7507C31.9037 12.2719 31.1587 11.9717 30.337 11.9717C29.5154 11.9717 28.7703 12.2704 28.1755 12.7507L23.7622 9.6198C23.8929 9.25658 23.9755 8.87085 23.9755 8.4626C23.9755 6.55344 22.4208 5 20.5101 5C18.5994 5 17.0447 6.55344 17.0447 8.4626C17.0447 8.87085 17.1288 9.25658 17.258 9.6198L12.8447 12.7507C12.2499 12.2719 11.5048 11.9717 10.6832 11.9717C8.77248 11.9717 7.21777 13.5252 7.21777 15.4343C7.21777 17.3435 8.77248 18.8969 10.6832 18.8969Z" fill="#FF7300"/>
<path d="M46.0229 34.7751H43.3581V16.3964C43.3581 15.8786 42.9375 15.4598 42.4208 15.4598H37.9084C37.3901 15.4598 36.971 15.8801 36.971 16.3964V34.7751H33.5327V23.3681C33.5327 22.8503 33.1121 22.4316 32.5953 22.4316H28.0829C27.5647 22.4316 27.1456 22.8518 27.1456 23.3681V34.7751H23.7057V16.3964C23.7057 15.8786 23.2852 15.4598 22.7684 15.4598H18.256C17.7378 15.4598 17.3187 15.8801 17.3187 16.3964V34.7751H13.8788V23.3681C13.8788 22.8503 13.4582 22.4316 12.9415 22.4316H8.42911C7.91087 22.4316 7.49178 22.8518 7.49178 23.3681V34.7751H4.25319V8.21943C4.25319 7.59806 3.74848 7.09375 3.1266 7.09375C2.50472 7.09375 2 7.59806 2 8.21943V35.9007C2 36.5221 2.50472 37.0264 3.1266 37.0264H46.0259C46.6478 37.0264 47.1525 36.5221 47.1525 35.9007C47.1525 35.2794 46.6478 34.7751 46.0259 34.7751H46.0229Z" fill="#3F5BD9"/>
</svg>
