<svg width="45" height="55" viewBox="0 0 45 55" fill="none" xmlns="http://www.w3.org/2000/svg">
<path d="M22.8054 2.75977C15.5978 2.75977 9.72852 8.68424 9.72852 15.9598C9.72852 23.2353 15.5978 29.1598 22.8054 29.1598C30.0131 29.1598 35.8824 23.2353 35.8824 15.9598C35.8824 8.68424 30.0963 2.75977 22.8054 2.75977Z" fill="#FF7300"/>
<path d="M19.0936 37.7926L13.0507 30.6253C12.7763 30.3027 12.3955 30.1068 11.9698 30.0741C11.5516 30.0453 11.1465 30.1893 10.8329 30.4774C10.3027 30.9633 10.1571 31.7565 10.4801 32.4075L10.65 32.7494C11.5703 34.6046 12.6549 36.3945 13.8758 38.0711L14.9287 39.5172C15.0968 39.7477 15.1658 40.03 15.1266 40.3142C15.0874 40.5985 14.9437 40.8501 14.7178 41.0229C14.4938 41.1957 14.2175 41.2668 13.9431 41.2265C13.6686 41.1861 13.4241 41.0363 13.2579 40.8059L12.205 39.3597C10.9151 37.589 9.76695 35.6935 8.7906 33.7269L8.62072 33.3851C7.86652 31.864 8.20628 30.0088 9.44586 28.8719C9.54106 28.7855 9.63814 28.7048 9.73708 28.6318L7.53609 22.903C7.2822 22.2442 6.66054 21.7699 5.97541 21.718C5.45643 21.6758 4.95799 21.8544 4.57716 22.2231C4.19632 22.5918 3.99097 23.0892 4.0003 23.627L4.24299 38.4283C4.26539 39.8168 4.79931 41.1266 5.74393 42.1137L11.1801 47.8119H20.378L20.2063 40.6177C20.1503 39.5806 19.7582 38.5762 19.0955 37.7926H19.0936Z" fill="#3F5BD9"/>
<path d="M11.2939 53.564C11.2939 54.0633 11.6878 54.4685 12.1751 54.4685H19.4968C19.9841 54.4685 20.378 54.0633 20.378 53.564V49.8555H11.2958V53.564H11.2939Z" fill="#3F5BD9"/>
<path d="M41.5909 22.2231C41.2101 21.8544 40.7135 21.6758 40.1927 21.718C39.5075 21.7699 38.8859 22.2442 38.632 22.903L36.431 28.6318C36.5299 28.7048 36.627 28.7855 36.7222 28.8719C37.9618 30.0069 38.3016 31.8621 37.5474 33.3851L37.3775 33.7269C36.4011 35.6935 35.253 37.589 33.963 39.3597L32.9101 40.8059C32.744 41.0363 32.4994 41.1861 32.225 41.2265C31.9487 41.2668 31.6724 41.1957 31.4484 41.0229C31.2244 40.8501 31.0806 40.5985 31.0396 40.3142C30.9985 40.03 31.0694 39.7477 31.2375 39.5172L32.2904 38.0711C33.5113 36.3964 34.5959 34.6046 35.5162 32.7494L35.6861 32.4075C36.0091 31.7565 35.8635 30.9633 35.3333 30.4774C35.0197 30.1893 34.6164 30.0472 34.1964 30.0741C33.7707 30.1068 33.3899 30.3027 33.1155 30.6253L27.0726 37.7926C26.4098 38.5762 26.0159 39.5806 25.9618 40.6177L25.79 47.8119H34.9879L40.4241 42.1137C41.3688 41.1266 41.9027 39.8168 41.9251 38.4283L42.1659 23.627C42.1752 23.0912 41.9699 22.5918 41.589 22.2231H41.5909Z" fill="#3F5BD9"/>
<path d="M25.79 53.564C25.79 54.0633 26.1839 54.4685 26.6712 54.4685H33.9929C34.4801 54.4685 34.874 54.0633 34.874 53.564V49.8555H25.7919V53.564H25.79Z" fill="#3F5BD9"/>
<path d="M22.8923 2C15.2589 2 9.07031 8.36647 9.07031 16.2194C9.07031 24.0723 15.2589 30.4388 22.8923 30.4388C30.5258 30.4388 36.7144 24.0723 36.7144 16.2194C36.7144 8.36647 30.5258 2 22.8923 2ZM22.8923 27.3986C16.8905 27.3986 12.0255 22.3938 12.0255 16.2194C12.0255 10.045 16.8905 5.04016 22.8923 5.04016C28.8942 5.04016 33.7592 10.045 33.7592 16.2194C33.7592 22.3938 28.8942 27.3986 22.8923 27.3986Z" fill="white"/>
<path d="M18.4648 9.04102H28.3124V9.06214C27.7318 9.98206 27.4051 10.4737 27.3304 10.5371H24.7001C25.0622 10.973 25.3068 11.5031 25.4375 12.1273H28.2433C28.2769 12.1349 28.2937 12.1484 28.2937 12.1695C27.6665 13.1374 27.3454 13.6233 27.3304 13.6233H25.5084C25.4673 14.1227 25.2358 14.7219 24.8121 15.4248C24.252 16.1334 23.7162 16.5944 23.2047 16.8037C22.2489 17.2742 21.3342 17.5085 20.4605 17.5085V17.5296C20.4605 17.6007 20.6752 17.8907 21.1045 18.4035L25.9676 24.4377V24.7219C25.9676 24.7507 25.9508 24.7642 25.9172 24.7642H23.7778C19.9284 20.1511 18.0037 17.835 18.0037 17.8139V16.4138L18.0243 16.362C18.3659 16.4119 18.7654 16.435 19.2228 16.435C21.379 16.435 22.7212 15.7148 23.2458 14.2763C23.3279 14.0651 23.369 13.848 23.369 13.6233H17.5128C17.4847 13.6233 17.4717 13.6099 17.4717 13.5811C18.1195 12.6112 18.4518 12.1273 18.4648 12.1273H23.1132V12.1061C22.8463 11.5511 22.331 11.119 21.5675 10.8098C21.0224 10.6274 20.5296 10.5352 20.0927 10.5352H17.4922V10.4833C18.1195 9.52114 18.4443 9.04102 18.4648 9.04102Z" fill="white"/>
</svg>
