<svg width="106" height="106" viewBox="0 0 106 106" fill="none" xmlns="http://www.w3.org/2000/svg">
<circle cx="53" cy="53" r="53" fill="#12A4F5"/>
<path d="M54.7511 35.8604H41.3311V55.2504H54.7511V35.8604Z" stroke="white" stroke-width="2.05" stroke-linejoin="round"/>
<path d="M68.172 12H54.752V55.24H68.172V12Z" stroke="white" stroke-width="2.05" stroke-linejoin="round"/>
<path d="M81.5919 26.9102H68.1719V55.2402H81.5919V26.9102Z" stroke="white" stroke-width="2.05" stroke-linejoin="round"/>
<path d="M51.7716 68.6999H66.6816C69.1516 68.6999 71.1516 66.6999 71.1516 64.2299C71.1516 61.7599 69.1516 59.7599 66.6816 59.7599H57.7316C55.6816 59.7599 52.5616 56.7799 50.0916 56.7799H41.3316C37.7316 56.7799 34.2016 59.5599 32.3816 61.2499C29.5816 64.0499 24.2316 69.5499 23.4316 70.1999C27.8916 74.0599 36.2916 82.3999 38.3416 84.2099C41.1116 81.4399 42.2016 79.1499 44.4916 79.1499H66.6816C68.7616 77.9899 81.5916 67.2199 81.5916 67.2199C81.5916 67.2199 90.3016 57.8399 92.0316 53.7999C90.9516 52.3399 84.2016 50.1699 80.1016 56.7799L70.7916 62.7399" stroke="white" stroke-width="2.06" stroke-miterlimit="10"/>
<path d="M19.8953 67.4597L13 74.3574L33.5804 94.9306L40.4757 88.033L19.8953 67.4597Z" stroke="white" stroke-width="2.23" stroke-miterlimit="10"/>
</svg>
