<svg width="106" height="106" viewBox="0 0 106 106" fill="none" xmlns="http://www.w3.org/2000/svg">
<circle cx="53" cy="53" r="53" fill="#3F5BD9"/>
<path d="M64.1326 68.7679C76.2159 68.7679 86.0114 58.4162 86.0114 45.6467C86.0114 32.8771 76.2159 22.5254 64.1326 22.5254C52.0493 22.5254 42.2539 32.8771 42.2539 45.6467C42.2539 58.4162 52.0493 68.7679 64.1326 68.7679Z" fill="#3F5BD9"/>
<path d="M42.2539 79.692C42.2539 79.692 46.8464 75.0002 48.4964 73.4495C55.1267 74.6821 59.9974 71.3024 62.5322 68.7676" stroke="white" stroke-width="3.14" stroke-miterlimit="10"/>
<path d="M14.1729 67.2073L21.976 59.4141L43.815 81.253L40.6937 84.3743" stroke="white" stroke-width="3.14" stroke-miterlimit="10"/>
<path d="M43.8154 67.2072C47.205 57.5352 43.8849 48.8473 40.8233 44.9806C42.1056 41.1138 42.6324 38.3603 43.0599 33.8076C43.3084 31.1933 42.1951 28.9567 41.042 27.3364C39.8591 25.6764 36.9764 26.0641 36.3998 27.913C33.8452 36.074 33.368 38.3006 31.7975 42.3961C30.0281 46.9786 30.6543 54.404 29.7796 56.2927C29.6006 56.6704 25.0977 60.9746 25.0977 60.9746" stroke="white" stroke-width="3.14" stroke-miterlimit="10"/>
<path d="M46.6086 31.144C50.7438 26.5217 56.7477 23.6191 63.4376 23.6191C75.9128 23.6191 86.0221 33.7285 86.0221 46.1937C86.0221 58.6688 75.9128 68.7782 63.4376 68.7782C56.0519 68.7782 49.4913 65.2295 45.376 59.7523" stroke="white" stroke-width="3.14" stroke-miterlimit="10"/>
<path d="M62.4238 55.4378C62.3741 55.1297 62.2449 54.8315 62.0461 54.583C61.8473 54.3345 61.5888 54.1357 61.3006 54.0164C60.3562 53.6188 60.1375 53.4398 60.0978 53.3901C59.5709 52.8036 59.2926 51.9488 59.2926 50.8354V39.9011C59.2926 38.7877 59.561 37.9329 60.0878 37.3464C60.6047 36.7698 61.4497 36.4816 62.5928 36.4816C63.7359 36.4816 64.5709 36.7698 65.0978 37.3464C65.6246 37.9329 65.893 38.7877 65.893 39.9011V45.746C65.893 46.7698 66.728 47.6048 67.7519 47.6048H67.7717H67.8115C68.3085 47.6048 68.7658 47.406 69.1137 47.0482C69.4616 46.7003 69.6505 46.2331 69.6505 45.736V39.8911C69.6505 38.7877 69.5014 37.7937 69.2031 36.9388C68.9049 36.074 68.4477 35.3285 67.8513 34.7122C67.2548 34.0959 66.4994 33.6287 65.6246 33.3205C64.7499 33.0124 63.7359 32.8633 62.5928 32.8633C61.4497 32.8633 60.4357 33.0223 59.5709 33.3205C58.6962 33.6287 57.9407 34.0959 57.3443 34.7122C56.7379 35.3285 56.2807 36.074 55.9825 36.9388C55.6843 37.7937 55.5352 38.7877 55.5352 39.8812V50.8156C55.5352 51.909 55.6843 52.8931 55.9825 53.748C56.2807 54.6128 56.7379 55.3583 57.3344 55.9746C57.6922 56.3523 58.1196 56.6704 58.5769 56.9289C59.0342 57.1873 59.561 57.3961 60.1177 57.5452C60.2767 57.585 60.4357 57.6048 60.5948 57.6048C61.1415 57.6048 61.6584 57.3663 62.0163 56.9388C62.1853 56.74 62.3145 56.5015 62.3841 56.2529C62.4636 55.9846 62.4735 55.7062 62.4338 55.4279V55.3981L62.4238 55.4378Z" fill="white"/>
<path d="M71.5987 54.0162C71.3701 53.7279 71.0818 53.5092 70.7637 53.3701C70.4456 53.2309 70.0778 53.1514 69.6802 53.1514C69.2826 53.1514 68.9247 53.221 68.6066 53.3701C68.2886 53.5192 68.0003 53.7379 67.7716 54.0162C67.3243 54.5629 67.0957 55.3382 67.0957 56.3124C67.0957 57.2866 67.3243 58.0718 67.7617 58.6285C67.9903 58.9168 68.2687 59.1355 68.5967 59.2846C68.9148 59.4337 69.2826 59.5033 69.6802 59.5033C70.0778 59.5033 70.4456 59.4337 70.7637 59.2846C71.0917 59.1355 71.3701 58.9168 71.5987 58.6285C72.046 58.0718 72.2746 57.2965 72.2746 56.3124C72.2746 55.3283 72.046 54.5629 71.5987 54.0162ZM68.9546 54.8412C69.1335 54.5927 69.3621 54.4734 69.6703 54.4734C69.9784 54.4734 70.217 54.5927 70.3959 54.8412C70.5947 55.1196 70.7041 55.6265 70.7041 56.3124C70.7041 56.9983 70.5947 57.5152 70.3959 57.8035C70.217 58.0619 69.9884 58.1812 69.6703 58.1812C69.3522 58.1812 69.1335 58.0619 68.9546 57.8035C68.7557 57.5152 68.6464 56.9983 68.6464 56.3124C68.6464 55.6265 68.7557 55.1196 68.9546 54.8412Z" fill="white"/>
<path d="M65.6844 53.291C66.1318 52.7442 66.3604 51.9689 66.3604 50.9848C66.3604 50.5077 66.3007 50.0703 66.1914 49.6925C66.0721 49.3049 65.9031 48.9669 65.6844 48.6886C65.4558 48.4003 65.1775 48.1816 64.8594 48.0226C64.5413 47.8735 64.1735 47.7939 63.7759 47.7939C63.3783 47.7939 63.0105 47.8635 62.6924 48.0126C62.3644 48.1617 62.086 48.3804 61.8574 48.6687C61.4101 49.2254 61.1914 50.0007 61.1914 50.9848C61.1914 51.9689 61.42 52.7343 61.8673 53.281C62.096 53.5693 62.3842 53.778 62.7023 53.9271C63.0204 54.0663 63.3882 54.1458 63.7858 54.1458C64.1834 54.1458 64.5413 54.0762 64.8594 53.9271C65.1775 53.788 65.4558 53.5693 65.6944 53.281L65.6844 53.291ZM63.0502 49.5037C63.2292 49.2452 63.4677 49.1259 63.7858 49.1259C64.1039 49.1259 64.3226 49.2452 64.5015 49.5037C64.7003 49.792 64.8097 50.2989 64.8097 50.9947C64.8097 51.6906 64.7003 52.1876 64.5015 52.4659C64.3226 52.7144 64.094 52.8337 63.7858 52.8337C63.4777 52.8337 63.2391 52.7144 63.0502 52.4659C62.8514 52.1876 62.7421 51.6806 62.7421 50.9947C62.7421 50.3089 62.8514 49.792 63.0502 49.5037Z" fill="white"/>
<path d="M69.1832 48.6292C69.0838 48.5795 68.9744 48.5596 68.8651 48.5596C68.5868 48.5596 68.3482 48.7087 68.219 48.9572L63.9347 57.7246C63.8551 57.8936 63.8353 58.0924 63.9048 58.2713C63.9645 58.4502 64.0937 58.5993 64.2627 58.6789C64.3621 58.7286 64.4714 58.7484 64.5808 58.7484C64.8591 58.7484 65.0977 58.5993 65.2269 58.3508L69.5112 49.5834C69.6802 49.2256 69.541 48.7981 69.1832 48.6292V48.6292Z" fill="white"/>
</svg>
