<svg width="106" height="106" viewBox="0 0 106 106" fill="none" xmlns="http://www.w3.org/2000/svg">
<circle cx="53" cy="53" r="53" fill="#50AC57"/>
<path d="M42.13 76.0704H31.86C30 76.0704 28.48 74.6604 28.48 72.9204V71.7704C28.48 71.4404 28.75 71.1604 29.09 71.1604H39.48C40.16 71.1604 40.72 70.6004 40.72 69.9204C40.72 69.2404 40.16 68.6804 39.48 68.6804H29.09C28.76 68.6804 28.48 68.4104 28.48 68.0704V31.1304C28.48 30.8004 28.75 30.5204 29.09 30.5204H62.34C62.67 30.5204 62.95 30.7904 62.95 31.1304V34.8204C62.95 35.5004 63.51 36.0604 64.19 36.0604C64.87 36.0604 65.43 35.5004 65.43 34.8204V26.2804C65.43 23.1804 62.8 20.6504 59.57 20.6504H31.86C28.63 20.6504 26 23.1704 26 26.2804V72.9204C26 76.0204 28.63 78.5504 31.86 78.5504H42.13C42.81 78.5504 43.37 77.9904 43.37 77.3104C43.37 76.6304 42.81 76.0704 42.13 76.0704V76.0704ZM28.48 26.2804C28.48 24.5504 30 23.1304 31.86 23.1304H59.57C61.43 23.1304 62.95 24.5404 62.95 26.2804V27.4304C62.95 27.7604 62.68 28.0404 62.34 28.0404H29.09C28.76 28.0404 28.48 27.7704 28.48 27.4304V26.2804Z" fill="white"/>
<path d="M57.98 53.1504C57.77 53.1504 57.56 53.0904 57.37 52.9704C56.85 52.6304 56.7 51.9404 57.04 51.4104C57.86 50.1504 58.3 48.6904 58.31 47.1804C58.35 42.8404 54.82 39.2804 50.44 39.2504C46.18 39.2504 42.61 42.7404 42.57 47.0504C42.56 48.4004 42.89 49.7304 43.54 50.9104C43.84 51.4504 43.64 52.1404 43.1 52.4404C42.56 52.7404 41.87 52.5404 41.57 52.0004C40.74 50.4904 40.3 48.7804 40.32 47.0404C40.37 41.4604 44.91 36.9104 50.44 37.0104C56.06 37.0604 60.59 41.6304 60.54 47.2104C60.52 49.1504 59.96 51.0304 58.9 52.6504C58.68 52.9804 58.32 53.1604 57.96 53.1604L57.98 53.1504Z" fill="white"/>
<path d="M49.33 86.4403C48.71 86.4403 48.21 85.9403 48.21 85.3203V83.7403C46.02 82.4703 43.96 80.4103 42.92 79.3703C42.89 79.3403 42.86 79.3103 42.84 79.2803C40.78 76.7003 40.05 74.5403 39.34 72.4603C38.43 69.8003 37.58 67.2803 33.94 63.6403C33.53 63.2303 33.5 62.5703 33.87 62.1303C35.33 60.3903 36.9 59.4703 38.55 59.4103C41.36 59.3303 43.53 61.5903 45.29 63.4303C45.93 64.1003 46.81 65.0103 47.15 65.1103C47.77 65.1103 47.71 67.3503 47.09 67.3503C45.93 67.3503 44.93 66.3103 43.67 64.9903C42.22 63.4803 40.43 61.5803 38.63 61.6603C37.87 61.6903 37.08 62.0803 36.28 62.8403C39.67 66.4603 40.58 69.1403 41.47 71.7503C42.14 73.7203 42.77 75.5903 44.56 77.8403C45.63 78.9103 47.79 81.0503 49.84 82.0803C50.22 82.2703 50.46 82.6603 50.46 83.0903V85.3403C50.46 85.9603 49.96 86.4603 49.34 86.4603L49.33 86.4403Z" fill="white"/>
<path d="M69.5497 86.4406C68.9297 86.4406 68.4296 85.9406 68.4296 85.3206V84.2006C68.4296 82.2806 69.3296 80.1806 70.2096 78.1406C70.9896 76.3106 71.7997 74.4206 71.7997 72.9606V65.0906C71.7997 64.0606 71.7996 63.3106 70.9996 62.5106C70.5896 62.1006 69.6596 62.0006 68.9596 62.2906C68.7196 62.3906 68.4296 62.5706 68.4296 62.8406V63.9606C68.4296 64.5806 67.9296 65.0806 67.3096 65.0806C66.6896 65.0806 66.1896 64.5806 66.1896 63.9606V61.7106C66.1896 60.4706 65.1796 59.4606 63.9396 59.4606C62.6996 59.4606 61.6896 60.4706 61.6896 61.7106V62.8306C61.6896 63.4506 61.1896 63.9506 60.5696 63.9506C59.9496 63.9506 59.4497 63.4506 59.4497 62.8306V60.5806C59.4497 59.3406 58.4397 58.3306 57.1997 58.3306C55.9597 58.3306 54.9497 59.3406 54.9497 60.5806V62.8306C54.9497 63.4506 54.4496 63.9506 53.8296 63.9506C53.2096 63.9506 52.7096 63.4506 52.7096 62.8306V47.1006C52.7096 45.8606 51.6996 44.8506 50.4596 44.8506C49.2196 44.8506 48.2096 45.8606 48.2096 47.1006V68.4506C48.2096 68.5706 48.2396 70.0606 46.8096 71.4906C46.3696 71.9306 45.6596 71.9306 45.2196 71.4906C44.7796 71.0506 44.7796 70.3406 45.2196 69.9006C45.9496 69.1706 45.9696 68.5006 45.9696 68.4706V47.1006C45.9696 44.6206 47.9896 42.6006 50.4696 42.6006C52.9496 42.6006 54.9696 44.6206 54.9696 47.1006V56.6906C55.6296 56.3106 56.3996 56.0906 57.2196 56.0906C58.8496 56.0906 60.2796 56.9606 61.0696 58.2706C61.8496 57.6106 62.8596 57.2106 63.9596 57.2106C65.8996 57.2106 67.5596 58.4506 68.1896 60.1806C69.5196 59.6606 71.4496 59.7406 72.6196 60.9106C74.0696 62.3606 74.0696 63.8706 74.0696 65.0706V72.9406C74.0696 74.8606 73.1696 76.9606 72.2896 79.0006C71.5096 80.8306 70.6997 83.8406 70.6997 85.3006C70.6997 85.9206 70.1996 86.4206 69.5796 86.4206L69.5497 86.4406Z" fill="white"/>
<path d="M49.3296 24.7402H41.9596C41.4625 24.7402 41.0596 25.1432 41.0596 25.6402V25.6502C41.0596 26.1473 41.4625 26.5502 41.9596 26.5502H49.3296C49.8266 26.5502 50.2296 26.1473 50.2296 25.6502V25.6402C50.2296 25.1432 49.8266 24.7402 49.3296 24.7402Z" fill="white"/>
<path d="M52.0799 24.7402H52.0299C51.5328 24.7402 51.1299 25.1432 51.1299 25.6402V25.6502C51.1299 26.1473 51.5328 26.5502 52.0299 26.5502H52.0799C52.5769 26.5502 52.9799 26.1473 52.9799 25.6502V25.6402C52.9799 25.1432 52.5769 24.7402 52.0799 24.7402Z" fill="white"/>
</svg>
