<svg width="106" height="106" viewBox="0 0 106 106" fill="none" xmlns="http://www.w3.org/2000/svg">
<circle cx="53" cy="53" r="53" fill="#FE912E"/>
<path d="M68.0535 63.8703L61.9518 57.0558C61.7313 56.8053 61.3786 56.8053 61.1582 57.0558C60.9377 57.3063 60.9465 57.7072 61.1582 57.9477L67.2864 64.7923C67.1894 67.6383 65.9814 69.4322 63.583 68.891L57.058 61.6055C56.8375 61.365 56.4848 61.365 56.2644 61.6155C56.0528 61.866 56.0528 62.2669 56.2732 62.5074L62.3133 69.2618C62.5249 72.7593 59.9413 73.1401 57.9838 72.1079L51.5823 64.9626C51.3618 64.7121 51.0091 64.7221 50.7975 64.9626C50.5771 65.2132 50.5859 65.614 50.7975 65.8646L56.7317 72.4887C56.8111 72.5789 56.8464 72.6991 56.8199 72.8194C56.2468 75.5352 54.2716 76.9782 51.3354 74.2124C51.2207 74.1021 51.1943 73.9117 51.2648 73.7714C51.7233 72.8194 51.8997 71.7371 51.7762 70.6347C51.6175 69.2518 51.0003 68.0292 50.0392 67.1974C49.3514 66.5861 48.5402 66.2253 47.6761 66.1452C47.6761 66.085 47.6672 66.0249 47.6584 65.9648C47.4997 64.5919 46.8825 63.3692 45.9214 62.5275C45.2865 61.9763 44.5546 61.6255 43.7699 61.5053C43.6376 61.4852 43.5318 61.375 43.5142 61.2147C43.329 59.972 42.747 58.7895 41.8035 57.9677C41.1863 57.4266 40.4633 57.0758 39.6961 56.9556C39.5727 56.9355 39.4669 56.8253 39.4404 56.685C39.2112 55.5025 38.638 54.4703 37.7827 53.7287C36.9803 53.0272 36.0192 52.6564 35.0052 52.6564C33.5679 52.6564 32.2541 53.398 31.3811 54.6707L29.503 57.4366C29.3443 57.6771 29.1944 57.9277 29.0797 58.1982C27.9423 57.5068 26.8224 56.8554 26.0818 56.4244C25.9407 56.3443 25.879 56.1639 25.9319 56.0035L31.7162 36.3016C31.7691 36.1312 31.9102 36.041 32.0689 36.0711C33.7619 36.4318 35.5166 36.1613 37.0773 35.2794C40.5514 33.3152 45.8596 30.399 47.2087 30.1184C47.6672 30.0182 48.6107 30.2887 49.8011 30.7698C50.0656 30.88 50.0833 31.2909 49.8276 31.4212L38.012 37.5442C37.9238 37.5943 37.8621 37.6745 37.8356 37.7847L37.6857 38.5363C37.1655 41.1519 37.4565 43.2664 38.541 44.8097C39.5991 46.3129 41.2745 47.0946 43.4083 47.0946C44.4841 47.0946 45.6216 46.8841 46.6797 46.4933C49.0516 45.6214 52.8961 43.4167 54.8712 42.2442C54.9858 42.1741 55.1269 42.2041 55.2151 42.3044L58.5482 45.8018C58.5482 45.8018 69.1734 56.9556 70.8311 58.8396C72.3389 60.5532 70.6724 64.3012 68.0535 63.8503V63.8703Z" stroke="white" stroke-width="2.03" stroke-miterlimit="10"/>
<path d="M49.0161 68.7313C48.5664 68.3404 48.0462 68.13 47.526 68.0799C46.7412 67.9897 45.93 68.2803 45.3304 68.9016C45.3216 68.8916 45.3039 68.8816 45.2863 68.8716L45.4274 68.6711C45.833 68.0799 46.027 67.3784 46.027 66.6769C46.027 66.5666 46.027 66.4564 46.0093 66.3562C45.9388 65.4843 45.5596 64.6526 44.8983 64.0813C44.4574 63.6905 43.946 63.4801 43.4258 63.4199C42.6322 63.3298 41.8122 63.6204 41.1949 64.2617L41.2919 64.1114C41.6887 63.5202 41.8827 62.8187 41.8827 62.1172C41.8827 61.9769 41.8827 61.8265 41.8562 61.6862C41.7681 60.8545 41.3889 60.0628 40.7629 59.5116C40.3749 59.1709 39.9252 58.9604 39.4579 58.8803C38.823 58.77 38.1617 58.8903 37.5973 59.2511C37.7825 58.8101 37.8707 58.3391 37.8707 57.8681C37.8707 57.6176 37.8442 57.357 37.7913 57.1065C37.6414 56.405 37.2975 55.7436 36.742 55.2726C35.4899 54.1702 33.6735 54.4408 32.7036 55.8638L30.8254 58.6297C30.7196 58.7901 30.6226 58.9504 30.5521 59.1308C29.926 60.5138 30.2346 62.2575 31.3457 63.2295C31.7336 63.5703 32.1833 63.7807 32.6507 63.8609C33.0739 63.941 33.506 63.911 33.9204 63.7707C34.1497 63.6905 34.3613 63.911 34.3084 64.1816C34.2202 64.6626 34.2202 65.1536 34.3172 65.6246C34.4671 66.3362 34.811 66.9875 35.3665 67.4686C35.8074 67.8594 36.31 68.0698 36.8302 68.13C37.6326 68.2202 38.4615 67.9295 39.0787 67.2681L38.9641 67.4385C38.4791 68.15 38.2939 69.0219 38.3909 69.8537C38.4879 70.6954 38.8583 71.4771 39.4843 72.0383C40.0398 72.5294 40.7188 72.7398 41.3713 72.7097C41.8033 72.6897 42.2354 72.5594 42.6146 72.3189C42.8526 72.1786 43.1172 72.3991 43.0642 72.6897C42.9849 73.1807 43.0025 73.6818 43.1172 74.1628C43.2671 74.8343 43.6109 75.4556 44.14 75.9066C45.3921 77.0089 47.2085 76.7383 48.1785 75.3053L49.5187 73.3311C49.6598 73.1306 49.7744 72.9102 49.8538 72.6897C50.0302 72.2588 50.1095 71.7978 50.1095 71.3368C50.1095 70.3547 49.7215 69.3726 48.9897 68.7313H49.0161Z" stroke="white" stroke-width="2.03" stroke-miterlimit="10"/>
<path d="M71.7827 36.5421L75.6448 54.781C75.6801 54.9714 75.5831 55.1618 75.4156 55.2019L71.2713 56.3744C71.1743 56.4044 71.0597 56.3744 70.9892 56.2942L59.0237 43.7274L55.4878 40.0095C55.3908 39.9093 55.2497 39.8892 55.1351 39.9594C54.0858 40.5907 48.9452 43.6773 46.1588 44.6995C43.0726 45.8419 38.1171 45.4711 39.2811 39.1477C39.2987 39.0374 39.3692 38.9372 39.4574 38.8971L52.6133 32.0826L55.1351 30.7798C57.7451 29.437 60.8136 29.8478 63.0621 31.8621L65.4605 34.0067C67.1799 35.55 69.3138 36.3417 71.4741 36.2816C71.6152 36.2816 71.7475 36.3818 71.7827 36.5421V36.5421Z" stroke="white" stroke-width="2.03" stroke-miterlimit="10"/>
<path d="M84.9739 54.1395L78.687 55.8631C77.964 56.0636 77.2409 55.5525 77.0646 54.7408L73.1143 36.071C72.982 35.4396 73.3259 34.8083 73.8726 34.658L80.4593 32.8541C81.1824 32.6537 81.9054 33.1648 82.0818 33.9765L85.9615 52.3056C86.1379 53.1273 85.6882 53.9491 84.9739 54.1495V54.1395Z" stroke="white" stroke-width="2.03" stroke-miterlimit="10"/>
<path d="M29.8376 34.1365C30.3491 34.3269 30.6312 34.9683 30.4549 35.5495L24.9351 54.3496L24.7499 54.991C24.5206 55.7626 23.7976 56.1735 23.1186 55.923L16.8846 53.5579C16.2056 53.2974 15.8441 52.4756 16.0645 51.704L21.6725 32.5932C21.9018 31.8216 22.6248 31.4107 23.3038 31.6613L29.8288 34.1365H29.8376Z" stroke="white" stroke-width="2.03" stroke-miterlimit="10"/>
</svg>
