<svg width="55" height="49" viewBox="0 0 55 49" fill="none" xmlns="http://www.w3.org/2000/svg">
<path d="M24.8071 41.7157C22.6176 39.6447 21.5283 36.8054 21.5283 33.2085C21.5283 32.4728 21.5882 31.6989 21.7026 30.8868L23.4455 16.7118C23.9465 12.4936 25.6022 9.15287 28.4072 6.68954C31.2121 4.23166 34.7631 3 39.0604 3C42.9709 3 46.0264 4.02457 48.2322 6.07916C50.438 8.13375 51.5436 10.9568 51.5436 14.5591C51.5436 14.9842 51.5055 15.7036 51.4292 16.7064L49.6864 30.8814C49.1417 35.1813 47.4588 38.5766 44.6375 41.0781C41.8108 43.5741 38.2543 44.8221 33.9571 44.8221C30.0465 44.8221 27.002 43.7866 24.8125 41.7157H24.8071ZM38.5648 35.1486C39.5124 34.2385 40.0625 32.9905 40.2205 31.4046L42.0777 16.3576C42.1158 16.1232 42.1376 15.818 42.1376 15.4256C42.1376 14.1122 41.7781 13.0822 41.0647 12.3465C40.3457 11.6108 39.3545 11.2456 38.0746 11.2456C36.6422 11.2456 35.4603 11.7034 34.5344 12.6081C33.6031 13.5182 33.0421 14.7662 32.8514 16.3521L30.9942 31.3991C30.9561 31.5953 30.9343 31.8842 30.9343 32.2711C30.9343 33.59 31.2938 34.6254 32.0072 35.3775C32.7207 36.135 33.7011 36.5111 34.9374 36.5111C36.408 36.5111 37.6171 36.0587 38.5648 35.1486Z" fill="#FF7300"/>
<path d="M25.777 43.5528C23.5331 41.4274 22.4111 38.5172 22.4111 34.8222C22.4111 34.0701 22.471 33.2744 22.5909 32.4406L24.3773 17.9004C24.8947 13.5733 26.5885 10.1453 29.4697 7.62203C32.3454 5.09876 35.9891 3.83984 40.3952 3.83984C44.4038 3.83984 47.541 4.89166 49.8067 6.9953C52.0724 9.09894 53.1998 11.9983 53.1998 15.6933C53.1998 16.1292 53.1617 16.865 53.08 17.9004L51.2935 32.4406C50.738 36.8495 49.0115 40.3374 46.114 42.8989C43.2165 45.4603 39.5619 46.741 35.1558 46.741C31.1472 46.741 28.021 45.6783 25.777 43.5528ZM39.8942 36.8223C40.8691 35.8904 41.4301 34.6097 41.5935 32.9802L43.4997 17.5462C43.5378 17.3064 43.5596 16.9903 43.5596 16.5925C43.5596 15.2409 43.1947 14.1891 42.4594 13.4316C41.7242 12.6795 40.7002 12.298 39.3931 12.298C37.9226 12.298 36.7135 12.7667 35.7603 13.6986C34.8072 14.6305 34.2299 15.9112 34.0338 17.5407L32.1276 32.9747C32.0894 33.1763 32.0677 33.4706 32.0677 33.8685C32.0677 35.22 32.4326 36.2828 33.1678 37.0566C33.9031 37.8305 34.9052 38.2175 36.1743 38.2175C37.6829 38.2175 38.9247 37.7488 39.8942 36.8168V36.8223Z" stroke="#3F5BD9" stroke-width="1.46" stroke-miterlimit="10"/>
<path d="M4.23634 17.1377H16.4799V17.1649C15.761 18.2767 15.3525 18.8707 15.2599 18.947H11.9921C12.4441 19.4757 12.7491 20.1133 12.9071 20.8708H16.3928C16.4363 20.8817 16.4581 20.8981 16.4581 20.9199C15.6793 22.0916 15.2763 22.6747 15.2599 22.6747H12.9942C12.9452 23.2797 12.6565 24.0045 12.1282 24.8547C11.4311 25.7103 10.7666 26.2662 10.1294 26.5223C8.94205 27.0891 7.80375 27.3779 6.71991 27.3779V27.4052C6.71991 27.4924 6.98679 27.8412 7.52054 28.4625L13.5661 35.7598V36.1031C13.5661 36.1358 13.5443 36.1522 13.5007 36.1522H10.8429C6.05545 30.577 3.66446 27.7703 3.66446 27.7485V26.0536L3.6917 25.9882C4.11652 26.0482 4.61214 26.0754 5.17857 26.0754C7.85821 26.0754 9.52482 25.2035 10.1784 23.465C10.2819 23.2088 10.3309 22.9472 10.3309 22.6747H3.04902C3.01634 22.6747 3 22.6584 3 22.6257C3.80607 21.454 4.22 20.8708 4.23634 20.8708H10.015V20.8436C9.68277 20.1733 9.04554 19.6501 8.09241 19.2795C7.41161 19.056 6.80161 18.947 6.25696 18.947H3.02179V18.8816C3.80062 17.7208 4.20366 17.1377 4.23089 17.1377H4.23634Z" fill="#3F5BD9"/>
</svg>
